<svg xmlns="http://www.w3.org/2000/svg" xmlns:xlink="http://www.w3.org/1999/xlink" zoomAndPan="magnify" preserveAspectRatio="xMidYMid meet" version="1.0" viewBox="-1.36 0.14 365.46 262.13"><defs><g/><clipPath id="ce525712fe"><path d="M 81.195312 0.140625 L 364.09375 0.140625 L 364.09375 262.265625 L 81.195312 262.265625 Z M 81.195312 0.140625 " clip-rule="nonzero"/></clipPath><clipPath id="c1d4e124c8"><path d="M 92.105469 41.875 C 69.867188 81.914062 85.320312 120.882812 105.65625 141.566406 L 224.558594 262.265625 L 340.949219 142 C 359.863281 119.75 366.929688 96.148438 363.089844 69.867188 C 357.527344 33.515625 329.210938 5.308594 294.234375 1.28125 C 272.78125 -1.03125 252.058594 5.261719 235.886719 19.480469 C 231.53125 23.308594 227.640625 27.585938 224.25 32.234375 C 220.226562 26.941406 215.511719 22.097656 210.175781 17.808594 C 191.574219 2.851562 167.898438 -2.734375 145.160156 1.53125 C 123.621094 5.933594 104.289062 20.632812 92.105469 41.875 Z M 92.105469 41.875 " clip-rule="nonzero"/></clipPath><linearGradient x1="0.315998" gradientTransform="matrix(1.02447, 0.000000000000000127, -0.000000000000000127, 1.02447, 80.872722, 0)" y1="128.069" x2="276.457982" gradientUnits="userSpaceOnUse" y2="128.069" id="4db4496fe1"><stop stop-opacity="1" stop-color="rgb(100%, 87.098694%, 34.899902%)" offset="0"/><stop stop-opacity="1" stop-color="rgb(100%, 86.981201%, 34.881592%)" offset="0.0078125"/><stop stop-opacity="1" stop-color="rgb(100%, 86.74469%, 34.843445%)" offset="0.015625"/><stop stop-opacity="1" stop-color="rgb(100%, 86.508179%, 34.806824%)" offset="0.0234375"/><stop stop-opacity="1" stop-color="rgb(100%, 86.273193%, 34.770203%)" offset="0.03125"/><stop stop-opacity="1" stop-color="rgb(100%, 86.036682%, 34.733582%)" offset="0.0390625"/><stop stop-opacity="1" stop-color="rgb(100%, 85.801697%, 34.69696%)" offset="0.046875"/><stop stop-opacity="1" stop-color="rgb(100%, 85.565186%, 34.660339%)" offset="0.0546875"/><stop stop-opacity="1" stop-color="rgb(100%, 85.328674%, 34.623718%)" offset="0.0625"/><stop stop-opacity="1" stop-color="rgb(100%, 85.093689%, 34.587097%)" offset="0.0703125"/><stop stop-opacity="1" stop-color="rgb(100%, 84.857178%, 34.550476%)" offset="0.078125"/><stop stop-opacity="1" stop-color="rgb(100%, 84.620667%, 34.513855%)" offset="0.0859375"/><stop stop-opacity="1" stop-color="rgb(100%, 84.385681%, 34.477234%)" offset="0.09375"/><stop stop-opacity="1" stop-color="rgb(100%, 84.14917%, 34.440613%)" offset="0.101562"/><stop stop-opacity="1" stop-color="rgb(100%, 83.914185%, 34.403992%)" offset="0.109375"/><stop stop-opacity="1" stop-color="rgb(100%, 83.677673%, 34.367371%)" offset="0.117187"/><stop stop-opacity="1" stop-color="rgb(100%, 83.441162%, 34.33075%)" offset="0.125"/><stop stop-opacity="1" stop-color="rgb(100%, 83.206177%, 34.292603%)" offset="0.132812"/><stop stop-opacity="1" stop-color="rgb(100%, 82.969666%, 34.255981%)" offset="0.140625"/><stop stop-opacity="1" stop-color="rgb(100%, 82.73468%, 34.21936%)" offset="0.148438"/><stop stop-opacity="1" stop-color="rgb(100%, 82.498169%, 34.182739%)" offset="0.15625"/><stop stop-opacity="1" stop-color="rgb(100%, 82.261658%, 34.146118%)" offset="0.164062"/><stop stop-opacity="1" stop-color="rgb(100%, 82.026672%, 34.109497%)" offset="0.171875"/><stop stop-opacity="1" stop-color="rgb(100%, 81.790161%, 34.072876%)" offset="0.179688"/><stop stop-opacity="1" stop-color="rgb(100%, 81.55365%, 34.036255%)" offset="0.1875"/><stop stop-opacity="1" stop-color="rgb(100%, 81.318665%, 33.999634%)" offset="0.195312"/><stop stop-opacity="1" stop-color="rgb(100%, 81.082153%, 33.963013%)" offset="0.203125"/><stop stop-opacity="1" stop-color="rgb(100%, 80.847168%, 33.926392%)" offset="0.210938"/><stop stop-opacity="1" stop-color="rgb(100%, 80.610657%, 33.889771%)" offset="0.21875"/><stop stop-opacity="1" stop-color="rgb(100%, 80.374146%, 33.853149%)" offset="0.226562"/><stop stop-opacity="1" stop-color="rgb(100%, 80.13916%, 33.816528%)" offset="0.234375"/><stop stop-opacity="1" stop-color="rgb(100%, 79.902649%, 33.779907%)" offset="0.242188"/><stop stop-opacity="1" stop-color="rgb(100%, 79.666138%, 33.743286%)" offset="0.25"/><stop stop-opacity="1" stop-color="rgb(100%, 79.431152%, 33.705139%)" offset="0.257812"/><stop stop-opacity="1" stop-color="rgb(100%, 79.194641%, 33.668518%)" offset="0.265625"/><stop stop-opacity="1" stop-color="rgb(100%, 78.959656%, 33.631897%)" offset="0.273438"/><stop stop-opacity="1" stop-color="rgb(100%, 78.723145%, 33.595276%)" offset="0.28125"/><stop stop-opacity="1" stop-color="rgb(100%, 78.486633%, 33.558655%)" offset="0.289062"/><stop stop-opacity="1" stop-color="rgb(100%, 78.251648%, 33.522034%)" offset="0.296875"/><stop stop-opacity="1" stop-color="rgb(100%, 78.015137%, 33.485413%)" offset="0.304688"/><stop stop-opacity="1" stop-color="rgb(100%, 77.778625%, 33.448792%)" offset="0.3125"/><stop stop-opacity="1" stop-color="rgb(100%, 77.54364%, 33.41217%)" offset="0.320312"/><stop stop-opacity="1" stop-color="rgb(100%, 77.307129%, 33.375549%)" offset="0.328125"/><stop stop-opacity="1" stop-color="rgb(100%, 77.072144%, 33.338928%)" offset="0.335937"/><stop stop-opacity="1" stop-color="rgb(100%, 76.835632%, 33.302307%)" offset="0.34375"/><stop stop-opacity="1" stop-color="rgb(100%, 76.599121%, 33.265686%)" offset="0.351562"/><stop stop-opacity="1" stop-color="rgb(100%, 76.364136%, 33.229065%)" offset="0.359375"/><stop stop-opacity="1" stop-color="rgb(100%, 76.127625%, 33.192444%)" offset="0.367187"/><stop stop-opacity="1" stop-color="rgb(100%, 75.891113%, 33.154297%)" offset="0.375"/><stop stop-opacity="1" stop-color="rgb(100%, 75.656128%, 33.117676%)" offset="0.382812"/><stop stop-opacity="1" stop-color="rgb(100%, 75.419617%, 33.081055%)" offset="0.390625"/><stop stop-opacity="1" stop-color="rgb(100%, 75.184631%, 33.044434%)" offset="0.398437"/><stop stop-opacity="1" stop-color="rgb(100%, 74.94812%, 33.007812%)" offset="0.40625"/><stop stop-opacity="1" stop-color="rgb(100%, 74.711609%, 32.971191%)" offset="0.414062"/><stop stop-opacity="1" stop-color="rgb(100%, 74.476624%, 32.93457%)" offset="0.421875"/><stop stop-opacity="1" stop-color="rgb(100%, 74.240112%, 32.897949%)" offset="0.429687"/><stop stop-opacity="1" stop-color="rgb(100%, 74.003601%, 32.861328%)" offset="0.4375"/><stop stop-opacity="1" stop-color="rgb(100%, 73.768616%, 32.824707%)" offset="0.445312"/><stop stop-opacity="1" stop-color="rgb(100%, 73.532104%, 32.788086%)" offset="0.453125"/><stop stop-opacity="1" stop-color="rgb(100%, 73.297119%, 32.751465%)" offset="0.460937"/><stop stop-opacity="1" stop-color="rgb(100%, 73.060608%, 32.714844%)" offset="0.46875"/><stop stop-opacity="1" stop-color="rgb(100%, 72.824097%, 32.678223%)" offset="0.476562"/><stop stop-opacity="1" stop-color="rgb(100%, 72.589111%, 32.641602%)" offset="0.484375"/><stop stop-opacity="1" stop-color="rgb(100%, 72.3526%, 32.60498%)" offset="0.492187"/><stop stop-opacity="1" stop-color="rgb(100%, 72.116089%, 32.566833%)" offset="0.5"/><stop stop-opacity="1" stop-color="rgb(100%, 71.881104%, 32.530212%)" offset="0.507812"/><stop stop-opacity="1" stop-color="rgb(100%, 71.644592%, 32.493591%)" offset="0.515625"/><stop stop-opacity="1" stop-color="rgb(100%, 71.409607%, 32.45697%)" offset="0.523438"/><stop stop-opacity="1" stop-color="rgb(100%, 71.173096%, 32.420349%)" offset="0.53125"/><stop stop-opacity="1" stop-color="rgb(100%, 70.936584%, 32.383728%)" offset="0.539062"/><stop stop-opacity="1" stop-color="rgb(100%, 70.701599%, 32.347107%)" offset="0.546875"/><stop stop-opacity="1" stop-color="rgb(100%, 70.465088%, 32.310486%)" offset="0.554688"/><stop stop-opacity="1" stop-color="rgb(100%, 70.228577%, 32.273865%)" offset="0.5625"/><stop stop-opacity="1" stop-color="rgb(100%, 69.993591%, 32.237244%)" offset="0.570312"/><stop stop-opacity="1" stop-color="rgb(100%, 69.75708%, 32.200623%)" offset="0.578125"/><stop stop-opacity="1" stop-color="rgb(100%, 69.522095%, 32.164001%)" offset="0.585938"/><stop stop-opacity="1" stop-color="rgb(100%, 69.285583%, 32.12738%)" offset="0.59375"/><stop stop-opacity="1" stop-color="rgb(100%, 69.049072%, 32.090759%)" offset="0.601562"/><stop stop-opacity="1" stop-color="rgb(100%, 68.814087%, 32.054138%)" offset="0.609375"/><stop stop-opacity="1" stop-color="rgb(100%, 68.577576%, 32.017517%)" offset="0.617188"/><stop stop-opacity="1" stop-color="rgb(100%, 68.341064%, 31.97937%)" offset="0.625"/><stop stop-opacity="1" stop-color="rgb(100%, 68.106079%, 31.942749%)" offset="0.632812"/><stop stop-opacity="1" stop-color="rgb(100%, 67.869568%, 31.906128%)" offset="0.640625"/><stop stop-opacity="1" stop-color="rgb(100%, 67.634583%, 31.869507%)" offset="0.648438"/><stop stop-opacity="1" stop-color="rgb(100%, 67.398071%, 31.832886%)" offset="0.65625"/><stop stop-opacity="1" stop-color="rgb(100%, 67.16156%, 31.796265%)" offset="0.664062"/><stop stop-opacity="1" stop-color="rgb(100%, 66.926575%, 31.759644%)" offset="0.671875"/><stop stop-opacity="1" stop-color="rgb(100%, 66.690063%, 31.723022%)" offset="0.679688"/><stop stop-opacity="1" stop-color="rgb(100%, 66.453552%, 31.686401%)" offset="0.6875"/><stop stop-opacity="1" stop-color="rgb(100%, 66.218567%, 31.64978%)" offset="0.695312"/><stop stop-opacity="1" stop-color="rgb(100%, 65.982056%, 31.613159%)" offset="0.703125"/><stop stop-opacity="1" stop-color="rgb(100%, 65.74707%, 31.576538%)" offset="0.710938"/><stop stop-opacity="1" stop-color="rgb(100%, 65.510559%, 31.539917%)" offset="0.71875"/><stop stop-opacity="1" stop-color="rgb(100%, 65.274048%, 31.503296%)" offset="0.726562"/><stop stop-opacity="1" stop-color="rgb(100%, 65.039062%, 31.466675%)" offset="0.734375"/><stop stop-opacity="1" stop-color="rgb(100%, 64.802551%, 31.428528%)" offset="0.742188"/><stop stop-opacity="1" stop-color="rgb(100%, 64.56604%, 31.391907%)" offset="0.75"/><stop stop-opacity="1" stop-color="rgb(100%, 64.331055%, 31.355286%)" offset="0.757812"/><stop stop-opacity="1" stop-color="rgb(100%, 64.094543%, 31.318665%)" offset="0.765625"/><stop stop-opacity="1" stop-color="rgb(100%, 63.859558%, 31.282043%)" offset="0.773438"/><stop stop-opacity="1" stop-color="rgb(100%, 63.623047%, 31.245422%)" offset="0.78125"/><stop stop-opacity="1" stop-color="rgb(100%, 63.386536%, 31.208801%)" offset="0.789062"/><stop stop-opacity="1" stop-color="rgb(100%, 63.15155%, 31.17218%)" offset="0.796875"/><stop stop-opacity="1" stop-color="rgb(100%, 62.915039%, 31.135559%)" offset="0.804688"/><stop stop-opacity="1" stop-color="rgb(100%, 62.678528%, 31.098938%)" offset="0.8125"/><stop stop-opacity="1" stop-color="rgb(100%, 62.443542%, 31.062317%)" offset="0.820312"/><stop stop-opacity="1" stop-color="rgb(100%, 62.207031%, 31.025696%)" offset="0.828125"/><stop stop-opacity="1" stop-color="rgb(100%, 61.972046%, 30.989075%)" offset="0.835938"/><stop stop-opacity="1" stop-color="rgb(100%, 61.735535%, 30.952454%)" offset="0.84375"/><stop stop-opacity="1" stop-color="rgb(100%, 61.499023%, 30.915833%)" offset="0.851562"/><stop stop-opacity="1" stop-color="rgb(100%, 61.264038%, 30.879211%)" offset="0.859375"/><stop stop-opacity="1" stop-color="rgb(100%, 61.027527%, 30.841064%)" offset="0.867188"/><stop stop-opacity="1" stop-color="rgb(100%, 60.791016%, 30.804443%)" offset="0.875"/><stop stop-opacity="1" stop-color="rgb(100%, 60.55603%, 30.767822%)" offset="0.882812"/><stop stop-opacity="1" stop-color="rgb(100%, 60.319519%, 30.731201%)" offset="0.890625"/><stop stop-opacity="1" stop-color="rgb(100%, 60.084534%, 30.69458%)" offset="0.898438"/><stop stop-opacity="1" stop-color="rgb(100%, 59.848022%, 30.657959%)" offset="0.90625"/><stop stop-opacity="1" stop-color="rgb(100%, 59.611511%, 30.621338%)" offset="0.914062"/><stop stop-opacity="1" stop-color="rgb(100%, 59.376526%, 30.584717%)" offset="0.921875"/><stop stop-opacity="1" stop-color="rgb(100%, 59.140015%, 30.548096%)" offset="0.929688"/><stop stop-opacity="1" stop-color="rgb(100%, 58.903503%, 30.511475%)" offset="0.9375"/><stop stop-opacity="1" stop-color="rgb(100%, 58.668518%, 30.474854%)" offset="0.945312"/><stop stop-opacity="1" stop-color="rgb(100%, 58.432007%, 30.438232%)" offset="0.953125"/><stop stop-opacity="1" stop-color="rgb(100%, 58.197021%, 30.401611%)" offset="0.960938"/><stop stop-opacity="1" stop-color="rgb(100%, 57.96051%, 30.36499%)" offset="0.96875"/><stop stop-opacity="1" stop-color="rgb(100%, 57.723999%, 30.328369%)" offset="0.976562"/><stop stop-opacity="1" stop-color="rgb(100%, 57.489014%, 30.291748%)" offset="0.984375"/><stop stop-opacity="1" stop-color="rgb(100%, 57.252502%, 30.253601%)" offset="0.992188"/><stop stop-opacity="1" stop-color="rgb(100%, 57.015991%, 30.21698%)" offset="1"/></linearGradient></defs><g clip-path="url(#ce525712fe)"><g clip-path="url(#c1d4e124c8)"><path fill="url(#4db4496fe1)" d="M 81.195312 0.140625 L 81.195312 262.265625 L 364.09375 262.265625 L 364.09375 0.140625 Z M 81.195312 0.140625 " fill-rule="nonzero"/></g></g><g fill="#00bf63" fill-opacity="1"><g transform="translate(142.111284, 57.137298)"><g><path d="M 53.25 -30.515625 L 53.25 -18.703125 C 51.832031 -12.222656 48.742188 -7.320312 43.984375 -4 C 39.234375 -0.675781 33.929688 0.984375 28.078125 0.984375 C 20.722656 0.984375 14.457031 -1.765625 9.28125 -7.265625 C 4.101562 -12.773438 1.515625 -19.425781 1.515625 -27.21875 C 1.515625 -35.144531 4.046875 -41.835938 9.109375 -47.296875 C 14.179688 -52.765625 20.503906 -55.5 28.078125 -55.5 C 36.929688 -55.5 43.929688 -52.390625 49.078125 -46.171875 L 40.953125 -37.265625 C 38.046875 -41.929688 33.992188 -44.265625 28.796875 -44.265625 C 24.972656 -44.265625 21.707031 -42.597656 19 -39.265625 C 16.289062 -35.941406 14.9375 -31.925781 14.9375 -27.21875 C 14.9375 -22.59375 16.289062 -18.640625 19 -15.359375 C 21.707031 -12.078125 24.972656 -10.4375 28.796875 -10.4375 C 31.972656 -10.4375 34.738281 -11.394531 37.09375 -13.3125 C 39.445312 -15.226562 40.625 -17.769531 40.625 -20.9375 L 28.078125 -20.9375 L 28.078125 -30.515625 Z M 53.25 -30.515625 "/></g></g></g><g fill="#00bf63" fill-opacity="1"><g transform="translate(197.857949, 57.137298)"><g><path d="M 15 -33.890625 L 15 -17.765625 C 15 -14.421875 15.503906 -12.039062 16.515625 -10.625 C 17.523438 -9.21875 19.238281 -8.515625 21.65625 -8.515625 C 24.082031 -8.515625 25.800781 -9.21875 26.8125 -10.625 C 27.832031 -12.039062 28.34375 -14.421875 28.34375 -17.765625 L 28.34375 -33.890625 L 40.03125 -33.890625 L 40.03125 -14.9375 C 40.03125 -9.289062 38.566406 -5.222656 35.640625 -2.734375 C 32.710938 -0.253906 28.054688 0.984375 21.671875 0.984375 C 15.285156 0.984375 10.625 -0.253906 7.6875 -2.734375 C 4.757812 -5.222656 3.296875 -9.289062 3.296875 -14.9375 L 3.296875 -33.890625 Z M 15 -33.890625 "/></g></g></g><g fill="#00bf63" fill-opacity="1"><g transform="translate(242.177902, 57.137298)"><g><path d="M 38.25 -15.328125 L 13.671875 -15.328125 C 13.671875 -12.953125 14.441406 -11.191406 15.984375 -10.046875 C 17.523438 -8.898438 19.203125 -8.328125 21.015625 -8.328125 C 22.898438 -8.328125 24.394531 -8.578125 25.5 -9.078125 C 26.601562 -9.585938 27.859375 -10.59375 29.265625 -12.09375 L 37.71875 -7.859375 C 34.195312 -1.960938 28.34375 0.984375 20.15625 0.984375 C 15.039062 0.984375 10.65625 -0.765625 7 -4.265625 C 3.34375 -7.765625 1.515625 -11.976562 1.515625 -16.90625 C 1.515625 -21.84375 3.34375 -26.070312 7 -29.59375 C 10.65625 -33.113281 15.039062 -34.875 20.15625 -34.875 C 25.519531 -34.875 29.882812 -33.320312 33.25 -30.21875 C 36.625 -27.113281 38.3125 -22.675781 38.3125 -16.90625 C 38.3125 -16.113281 38.289062 -15.585938 38.25 -15.328125 Z M 14 -21.796875 L 26.890625 -21.796875 C 26.617188 -23.554688 25.921875 -24.910156 24.796875 -25.859375 C 23.679688 -26.804688 22.242188 -27.28125 20.484375 -27.28125 C 18.546875 -27.28125 17.003906 -26.773438 15.859375 -25.765625 C 14.710938 -24.753906 14.09375 -23.429688 14 -21.796875 Z M 14 -21.796875 "/></g></g></g><g fill="#00bf63" fill-opacity="1"><g transform="translate(282.99719, 57.137298)"><g><path d="M 18.703125 -34.875 C 20.640625 -34.875 22.550781 -34.65625 24.4375 -34.21875 C 26.332031 -33.78125 27.742188 -33.34375 28.671875 -32.90625 L 30.0625 -32.234375 L 26.234375 -24.578125 C 23.585938 -25.984375 21.078125 -26.6875 18.703125 -26.6875 C 17.378906 -26.6875 16.441406 -26.539062 15.890625 -26.25 C 15.335938 -25.96875 15.0625 -25.429688 15.0625 -24.640625 C 15.0625 -24.460938 15.082031 -24.285156 15.125 -24.109375 C 15.164062 -23.929688 15.253906 -23.765625 15.390625 -23.609375 C 15.523438 -23.460938 15.644531 -23.332031 15.75 -23.21875 C 15.863281 -23.113281 16.050781 -22.992188 16.3125 -22.859375 C 16.582031 -22.722656 16.789062 -22.625 16.9375 -22.5625 C 17.09375 -22.5 17.347656 -22.398438 17.703125 -22.265625 C 18.054688 -22.128906 18.320312 -22.023438 18.5 -21.953125 C 18.675781 -21.890625 18.972656 -21.789062 19.390625 -21.65625 C 19.804688 -21.53125 20.125 -21.445312 20.34375 -21.40625 C 21.707031 -21.007812 22.894531 -20.566406 23.90625 -20.078125 C 24.925781 -19.597656 25.992188 -18.9375 27.109375 -18.09375 C 28.234375 -17.257812 29.101562 -16.203125 29.71875 -14.921875 C 30.34375 -13.648438 30.65625 -12.195312 30.65625 -10.5625 C 30.65625 -2.863281 25.300781 0.984375 14.59375 0.984375 C 12.175781 0.984375 9.875 0.613281 7.6875 -0.125 C 5.507812 -0.875 3.9375 -1.625 2.96875 -2.375 L 1.515625 -3.5625 L 6.28125 -11.5625 C 6.625 -11.25 7.082031 -10.882812 7.65625 -10.46875 C 8.226562 -10.050781 9.265625 -9.476562 10.765625 -8.75 C 12.265625 -8.019531 13.566406 -7.65625 14.671875 -7.65625 C 17.085938 -7.65625 18.296875 -8.472656 18.296875 -10.109375 C 18.296875 -10.859375 17.988281 -11.441406 17.375 -11.859375 C 16.757812 -12.273438 15.710938 -12.75 14.234375 -13.28125 C 12.753906 -13.8125 11.597656 -14.296875 10.765625 -14.734375 C 8.648438 -15.835938 6.972656 -17.082031 5.734375 -18.46875 C 4.503906 -19.851562 3.890625 -21.691406 3.890625 -23.984375 C 3.890625 -27.421875 5.222656 -30.09375 7.890625 -32 C 10.554688 -33.914062 14.160156 -34.875 18.703125 -34.875 Z M 18.703125 -34.875 "/></g></g></g><g fill="#00bf63" fill-opacity="1"><g transform="translate(316.484882, 57.137298)"><g><path d="M 18.703125 -34.875 C 20.640625 -34.875 22.550781 -34.65625 24.4375 -34.21875 C 26.332031 -33.78125 27.742188 -33.34375 28.671875 -32.90625 L 30.0625 -32.234375 L 26.234375 -24.578125 C 23.585938 -25.984375 21.078125 -26.6875 18.703125 -26.6875 C 17.378906 -26.6875 16.441406 -26.539062 15.890625 -26.25 C 15.335938 -25.96875 15.0625 -25.429688 15.0625 -24.640625 C 15.0625 -24.460938 15.082031 -24.285156 15.125 -24.109375 C 15.164062 -23.929688 15.253906 -23.765625 15.390625 -23.609375 C 15.523438 -23.460938 15.644531 -23.332031 15.75 -23.21875 C 15.863281 -23.113281 16.050781 -22.992188 16.3125 -22.859375 C 16.582031 -22.722656 16.789062 -22.625 16.9375 -22.5625 C 17.09375 -22.5 17.347656 -22.398438 17.703125 -22.265625 C 18.054688 -22.128906 18.320312 -22.023438 18.5 -21.953125 C 18.675781 -21.890625 18.972656 -21.789062 19.390625 -21.65625 C 19.804688 -21.53125 20.125 -21.445312 20.34375 -21.40625 C 21.707031 -21.007812 22.894531 -20.566406 23.90625 -20.078125 C 24.925781 -19.597656 25.992188 -18.9375 27.109375 -18.09375 C 28.234375 -17.257812 29.101562 -16.203125 29.71875 -14.921875 C 30.34375 -13.648438 30.65625 -12.195312 30.65625 -10.5625 C 30.65625 -2.863281 25.300781 0.984375 14.59375 0.984375 C 12.175781 0.984375 9.875 0.613281 7.6875 -0.125 C 5.507812 -0.875 3.9375 -1.625 2.96875 -2.375 L 1.515625 -3.5625 L 6.28125 -11.5625 C 6.625 -11.25 7.082031 -10.882812 7.65625 -10.46875 C 8.226562 -10.050781 9.265625 -9.476562 10.765625 -8.75 C 12.265625 -8.019531 13.566406 -7.65625 14.671875 -7.65625 C 17.085938 -7.65625 18.296875 -8.472656 18.296875 -10.109375 C 18.296875 -10.859375 17.988281 -11.441406 17.375 -11.859375 C 16.757812 -12.273438 15.710938 -12.75 14.234375 -13.28125 C 12.753906 -13.8125 11.597656 -14.296875 10.765625 -14.734375 C 8.648438 -15.835938 6.972656 -17.082031 5.734375 -18.46875 C 4.503906 -19.851562 3.890625 -21.691406 3.890625 -23.984375 C 3.890625 -27.421875 5.222656 -30.09375 7.890625 -32 C 10.554688 -33.914062 14.160156 -34.875 18.703125 -34.875 Z M 18.703125 -34.875 "/></g></g></g><g fill="#00bf63" fill-opacity="1"><g transform="translate(102.194398, 196.248014)"><g><path d="M 29.53125 -68.125 C 33.144531 -68.125 36.679688 -67.597656 40.140625 -66.546875 C 43.609375 -65.492188 46.179688 -64.453125 47.859375 -63.421875 L 50.28125 -61.8125 L 44.125 -49.640625 C 43.632812 -49.960938 42.957031 -50.378906 42.09375 -50.890625 C 41.226562 -51.410156 39.601562 -52.101562 37.21875 -52.96875 C 34.84375 -53.832031 32.628906 -54.265625 30.578125 -54.265625 C 28.035156 -54.265625 26.070312 -53.722656 24.6875 -52.640625 C 23.3125 -51.554688 22.625 -50.097656 22.625 -48.265625 C 22.625 -47.335938 22.945312 -46.484375 23.59375 -45.703125 C 24.25 -44.921875 25.359375 -44.082031 26.921875 -43.1875 C 28.492188 -42.300781 29.875 -41.585938 31.0625 -41.046875 C 32.25 -40.503906 34.085938 -39.691406 36.578125 -38.609375 C 40.898438 -36.765625 44.585938 -34.257812 47.640625 -31.09375 C 50.703125 -27.9375 52.234375 -24.359375 52.234375 -20.359375 C 52.234375 -16.515625 51.539062 -13.160156 50.15625 -10.296875 C 48.78125 -7.429688 46.890625 -5.1875 44.484375 -3.5625 C 42.078125 -1.945312 39.414062 -0.75 36.5 0.03125 C 33.582031 0.820312 30.421875 1.21875 27.015625 1.21875 C 24.085938 1.21875 21.21875 0.921875 18.40625 0.328125 C 15.59375 -0.265625 13.238281 -1.007812 11.34375 -1.90625 C 9.457031 -2.800781 7.753906 -3.679688 6.234375 -4.546875 C 4.722656 -5.410156 3.617188 -6.140625 2.921875 -6.734375 L 1.859375 -7.625 L 9.484375 -20.4375 C 10.140625 -19.894531 11.035156 -19.203125 12.171875 -18.359375 C 13.304688 -17.523438 15.316406 -16.40625 18.203125 -15 C 21.097656 -13.59375 23.65625 -12.890625 25.875 -12.890625 C 32.3125 -12.890625 35.53125 -15.082031 35.53125 -19.46875 C 35.53125 -20.382812 35.296875 -21.234375 34.828125 -22.015625 C 34.367188 -22.804688 33.554688 -23.59375 32.390625 -24.375 C 31.234375 -25.15625 30.207031 -25.773438 29.3125 -26.234375 C 28.425781 -26.691406 26.96875 -27.394531 24.9375 -28.34375 C 22.914062 -29.289062 21.414062 -30.007812 20.4375 -30.5 C 16.382812 -32.5 13.25 -35 11.03125 -38 C 8.8125 -41 7.703125 -44.226562 7.703125 -47.6875 C 7.703125 -53.695312 9.914062 -58.601562 14.34375 -62.40625 C 18.78125 -66.21875 23.84375 -68.125 29.53125 -68.125 Z M 29.53125 -68.125 "/></g></g></g><g fill="#00bf63" fill-opacity="1"><g transform="translate(157.907583, 196.248014)"><g><path d="M 7.703125 -5.140625 C 3.804688 -9.390625 1.859375 -14.597656 1.859375 -20.765625 C 1.859375 -26.929688 3.804688 -32.148438 7.703125 -36.421875 C 11.597656 -40.691406 16.546875 -42.828125 22.546875 -42.828125 C 28.066406 -42.828125 32.609375 -41.097656 36.171875 -37.640625 L 36.171875 -41.609375 L 50.53125 -41.609375 L 50.53125 0 L 36.34375 0 L 36.34375 -4.703125 L 36.171875 -4.703125 C 32.609375 -0.753906 28.066406 1.21875 22.546875 1.21875 C 16.546875 1.21875 11.597656 -0.898438 7.703125 -5.140625 Z M 19.90625 -27.8125 C 18.039062 -25.976562 17.109375 -23.628906 17.109375 -20.765625 C 17.109375 -17.898438 18 -15.5625 19.78125 -13.75 C 21.570312 -11.9375 23.925781 -11.03125 26.84375 -11.03125 C 29.65625 -11.03125 31.96875 -11.945312 33.78125 -13.78125 C 35.59375 -15.625 36.5 -17.953125 36.5 -20.765625 C 36.5 -23.628906 35.566406 -25.976562 33.703125 -27.8125 C 31.835938 -29.65625 29.550781 -30.578125 26.84375 -30.578125 C 24.082031 -30.578125 21.769531 -29.65625 19.90625 -27.8125 Z M 19.90625 -27.8125 "/></g></g></g><g fill="#00bf63" fill-opacity="1"><g transform="translate(214.512825, 196.248014)"><g><path d="M 6.25 -64.8125 C 7.925781 -66.488281 9.925781 -67.328125 12.25 -67.328125 C 14.570312 -67.328125 16.570312 -66.488281 18.25 -64.8125 C 19.925781 -63.132812 20.765625 -61.128906 20.765625 -58.796875 C 20.765625 -56.472656 19.925781 -54.472656 18.25 -52.796875 C 16.570312 -51.117188 14.570312 -50.28125 12.25 -50.28125 C 9.925781 -50.28125 7.925781 -51.117188 6.25 -52.796875 C 4.570312 -54.472656 3.734375 -56.472656 3.734375 -58.796875 C 3.734375 -61.128906 4.570312 -63.132812 6.25 -64.8125 Z M 4.859375 -41.609375 L 4.859375 0 L 19.21875 0 L 19.21875 -41.609375 Z M 4.859375 -41.609375 "/></g></g></g><g fill="#00bf63" fill-opacity="1"><g transform="translate(240.220452, 196.248014)"><g><path d="M 7.703125 -5.140625 C 3.804688 -9.390625 1.859375 -14.597656 1.859375 -20.765625 C 1.859375 -26.929688 3.804688 -32.148438 7.703125 -36.421875 C 11.597656 -40.691406 16.546875 -42.828125 22.546875 -42.828125 C 28.066406 -42.828125 32.609375 -41.097656 36.171875 -37.640625 L 36.171875 -69.75 L 50.53125 -69.75 L 50.53125 0 L 36.34375 0 L 36.34375 -4.703125 L 36.171875 -4.703125 C 32.609375 -0.753906 28.066406 1.21875 22.546875 1.21875 C 16.546875 1.21875 11.597656 -0.898438 7.703125 -5.140625 Z M 19.90625 -27.8125 C 18.039062 -25.976562 17.109375 -23.628906 17.109375 -20.765625 C 17.109375 -17.898438 18 -15.5625 19.78125 -13.75 C 21.570312 -11.9375 23.925781 -11.03125 26.84375 -11.03125 C 29.65625 -11.03125 31.96875 -11.945312 33.78125 -13.78125 C 35.59375 -15.625 36.5 -17.953125 36.5 -20.765625 C 36.5 -23.628906 35.566406 -25.976562 33.703125 -27.8125 C 31.835938 -29.65625 29.550781 -30.578125 26.84375 -30.578125 C 24.082031 -30.578125 21.769531 -29.65625 19.90625 -27.8125 Z M 19.90625 -27.8125 "/></g></g></g><g fill="#00bf63" fill-opacity="1"><g transform="translate(0.0000045, 115.383339)"><g><path d="M 62.5625 0 L 50.640625 -41.796875 L 38.734375 0 L 19.859375 0 L -1.359375 -74.484375 L 17.515625 -74.484375 L 30.25 -23.390625 L 30.703125 -23.390625 L 44.234375 -74.484375 L 57.0625 -74.484375 L 70.59375 -23.390625 L 71.046875 -23.390625 L 83.78125 -74.484375 L 102.5625 -74.484375 L 81.34375 0 Z M 62.5625 0 "/></g></g></g><g fill="#00bf63" fill-opacity="1"><g transform="translate(102.555127, 115.383339)"><g><path d="M 5.421875 0 L 5.421875 -77.640625 L 21.390625 -77.640625 L 21.390625 -41.4375 L 21.578125 -41.4375 C 25.734375 -45.59375 30.15625 -47.671875 34.84375 -47.671875 C 37.132812 -47.671875 39.40625 -47.367188 41.65625 -46.765625 C 43.914062 -46.160156 46.082031 -45.226562 48.15625 -43.96875 C 50.238281 -42.707031 51.925781 -40.914062 53.21875 -38.59375 C 54.507812 -36.28125 55.15625 -33.585938 55.15625 -30.515625 L 55.15625 0 L 39.1875 0 L 39.1875 -26.1875 C 39.1875 -28.59375 38.414062 -30.695312 36.875 -32.5 C 35.34375 -34.300781 33.34375 -35.203125 30.875 -35.203125 C 28.46875 -35.203125 26.285156 -34.269531 24.328125 -32.40625 C 22.367188 -30.539062 21.390625 -28.46875 21.390625 -26.1875 L 21.390625 0 Z M 5.421875 0 "/></g></g></g><g fill="#00bf63" fill-opacity="1"><g transform="translate(163.582725, 115.383339)"><g><path d="M 9.796875 -5.5 C 4.648438 -10.082031 2.078125 -15.953125 2.078125 -23.109375 C 2.078125 -30.273438 4.753906 -36.160156 10.109375 -40.765625 C 15.460938 -45.367188 22.082031 -47.671875 29.96875 -47.671875 C 37.738281 -47.671875 44.285156 -45.351562 49.609375 -40.71875 C 54.929688 -36.082031 57.59375 -30.210938 57.59375 -23.109375 C 57.59375 -16.003906 54.988281 -10.148438 49.78125 -5.546875 C 44.582031 -0.941406 37.976562 1.359375 29.96875 1.359375 C 21.664062 1.359375 14.941406 -0.925781 9.796875 -5.5 Z M 22.15625 -30.953125 C 20.082031 -28.910156 19.046875 -26.296875 19.046875 -23.109375 C 19.046875 -19.921875 20.039062 -17.316406 22.03125 -15.296875 C 24.019531 -13.285156 26.640625 -12.28125 29.890625 -12.28125 C 33.015625 -12.28125 35.582031 -13.300781 37.59375 -15.34375 C 39.613281 -17.394531 40.625 -19.984375 40.625 -23.109375 C 40.625 -26.296875 39.582031 -28.910156 37.5 -30.953125 C 35.425781 -33.003906 32.890625 -34.03125 29.890625 -34.03125 C 26.816406 -34.03125 24.238281 -33.003906 22.15625 -30.953125 Z M 22.15625 -30.953125 "/></g></g></g><g fill="#00bf63" fill-opacity="1"><g transform="translate(303.799789, 209.7977)"><g><path d="M 6.25 -64.8125 C 7.925781 -66.488281 9.925781 -67.328125 12.25 -67.328125 C 14.570312 -67.328125 16.570312 -66.488281 18.25 -64.8125 C 19.925781 -63.132812 20.765625 -61.128906 20.765625 -58.796875 C 20.765625 -56.472656 19.925781 -54.472656 18.25 -52.796875 C 16.570312 -51.117188 14.570312 -50.28125 12.25 -50.28125 C 9.925781 -50.28125 7.925781 -51.117188 6.25 -52.796875 C 4.570312 -54.472656 3.734375 -56.472656 3.734375 -58.796875 C 3.734375 -61.128906 4.570312 -63.132812 6.25 -64.8125 Z M 4.859375 -41.609375 L 4.859375 0 L 19.21875 0 L 19.21875 -41.609375 Z M 4.859375 -41.609375 "/></g></g></g><g fill="#00bf63" fill-opacity="1"><g transform="translate(329.507421, 209.7977)"><g><path d="M 7.296875 -41.609375 L 7.296875 -57.09375 L 21.65625 -57.09375 L 21.65625 -41.609375 L 30.421875 -41.609375 L 30.421875 -30.65625 L 21.65625 -30.65625 L 21.65625 -17.4375 C 21.65625 -13.601562 22.738281 -11.6875 24.90625 -11.6875 C 25.445312 -11.6875 26.015625 -11.789062 26.609375 -12 C 27.203125 -12.21875 27.660156 -12.4375 27.984375 -12.65625 L 28.46875 -12.984375 L 32.03125 -1.375 C 28.957031 0.351562 25.445312 1.21875 21.5 1.21875 C 18.789062 1.21875 16.460938 0.742188 14.515625 -0.203125 C 12.566406 -1.148438 11.09375 -2.421875 10.09375 -4.015625 C 9.09375 -5.609375 8.375 -7.285156 7.9375 -9.046875 C 7.507812 -10.804688 7.296875 -12.6875 7.296875 -14.6875 L 7.296875 -30.65625 L 1.296875 -30.65625 L 1.296875 -41.609375 Z M 7.296875 -41.609375 "/></g></g></g></svg>