<svg xmlns="http://www.w3.org/2000/svg" xmlns:xlink="http://www.w3.org/1999/xlink" zoomAndPan="magnify" preserveAspectRatio="xMidYMid meet" version="1.0" viewBox="3.67 0.14 360.43 262.13"><defs><g/><clipPath id="7dda42a3e8"><path d="M 81.195312 0.140625 L 364.09375 0.140625 L 364.09375 262.265625 L 81.195312 262.265625 Z M 81.195312 0.140625 " clip-rule="nonzero"/></clipPath><clipPath id="abe365928c"><path d="M 92.105469 41.875 C 69.867188 81.914062 85.320312 120.882812 105.65625 141.566406 L 224.558594 262.265625 L 340.949219 142 C 359.863281 119.75 366.929688 96.148438 363.089844 69.867188 C 357.527344 33.515625 329.210938 5.308594 294.234375 1.28125 C 272.78125 -1.03125 252.058594 5.261719 235.886719 19.480469 C 231.53125 23.308594 227.640625 27.585938 224.25 32.234375 C 220.226562 26.941406 215.511719 22.097656 210.175781 17.808594 C 191.574219 2.851562 167.898438 -2.734375 145.160156 1.53125 C 123.621094 5.933594 104.289062 20.632812 92.105469 41.875 Z M 92.105469 41.875 " clip-rule="nonzero"/></clipPath><linearGradient x1="0.315998" gradientTransform="matrix(1.02447, 0.000000000000000127, -0.000000000000000127, 1.02447, 80.872722, -0)" y1="128.069" x2="276.457982" gradientUnits="userSpaceOnUse" y2="128.069" id="794bafab78"><stop stop-opacity="1" stop-color="rgb(100%, 87.098694%, 34.899902%)" offset="0"/><stop stop-opacity="1" stop-color="rgb(100%, 86.981201%, 34.881592%)" offset="0.0078125"/><stop stop-opacity="1" stop-color="rgb(100%, 86.74469%, 34.843445%)" offset="0.015625"/><stop stop-opacity="1" stop-color="rgb(100%, 86.508179%, 34.806824%)" offset="0.0234375"/><stop stop-opacity="1" stop-color="rgb(100%, 86.273193%, 34.770203%)" offset="0.03125"/><stop stop-opacity="1" stop-color="rgb(100%, 86.036682%, 34.733582%)" offset="0.0390625"/><stop stop-opacity="1" stop-color="rgb(100%, 85.801697%, 34.69696%)" offset="0.046875"/><stop stop-opacity="1" stop-color="rgb(100%, 85.565186%, 34.660339%)" offset="0.0546875"/><stop stop-opacity="1" stop-color="rgb(100%, 85.328674%, 34.623718%)" offset="0.0625"/><stop stop-opacity="1" stop-color="rgb(100%, 85.093689%, 34.587097%)" offset="0.0703125"/><stop stop-opacity="1" stop-color="rgb(100%, 84.857178%, 34.550476%)" offset="0.078125"/><stop stop-opacity="1" stop-color="rgb(100%, 84.620667%, 34.513855%)" offset="0.0859375"/><stop stop-opacity="1" stop-color="rgb(100%, 84.385681%, 34.477234%)" offset="0.09375"/><stop stop-opacity="1" stop-color="rgb(100%, 84.14917%, 34.440613%)" offset="0.101562"/><stop stop-opacity="1" stop-color="rgb(100%, 83.914185%, 34.403992%)" offset="0.109375"/><stop stop-opacity="1" stop-color="rgb(100%, 83.677673%, 34.367371%)" offset="0.117187"/><stop stop-opacity="1" stop-color="rgb(100%, 83.441162%, 34.33075%)" offset="0.125"/><stop stop-opacity="1" stop-color="rgb(100%, 83.206177%, 34.292603%)" offset="0.132812"/><stop stop-opacity="1" stop-color="rgb(100%, 82.969666%, 34.255981%)" offset="0.140625"/><stop stop-opacity="1" stop-color="rgb(100%, 82.73468%, 34.21936%)" offset="0.148438"/><stop stop-opacity="1" stop-color="rgb(100%, 82.498169%, 34.182739%)" offset="0.15625"/><stop stop-opacity="1" stop-color="rgb(100%, 82.261658%, 34.146118%)" offset="0.164062"/><stop stop-opacity="1" stop-color="rgb(100%, 82.026672%, 34.109497%)" offset="0.171875"/><stop stop-opacity="1" stop-color="rgb(100%, 81.790161%, 34.072876%)" offset="0.179688"/><stop stop-opacity="1" stop-color="rgb(100%, 81.55365%, 34.036255%)" offset="0.1875"/><stop stop-opacity="1" stop-color="rgb(100%, 81.318665%, 33.999634%)" offset="0.195312"/><stop stop-opacity="1" stop-color="rgb(100%, 81.082153%, 33.963013%)" offset="0.203125"/><stop stop-opacity="1" stop-color="rgb(100%, 80.847168%, 33.926392%)" offset="0.210938"/><stop stop-opacity="1" stop-color="rgb(100%, 80.610657%, 33.889771%)" offset="0.21875"/><stop stop-opacity="1" stop-color="rgb(100%, 80.374146%, 33.853149%)" offset="0.226562"/><stop stop-opacity="1" stop-color="rgb(100%, 80.13916%, 33.816528%)" offset="0.234375"/><stop stop-opacity="1" stop-color="rgb(100%, 79.902649%, 33.779907%)" offset="0.242188"/><stop stop-opacity="1" stop-color="rgb(100%, 79.666138%, 33.743286%)" offset="0.25"/><stop stop-opacity="1" stop-color="rgb(100%, 79.431152%, 33.705139%)" offset="0.257812"/><stop stop-opacity="1" stop-color="rgb(100%, 79.194641%, 33.668518%)" offset="0.265625"/><stop stop-opacity="1" stop-color="rgb(100%, 78.959656%, 33.631897%)" offset="0.273438"/><stop stop-opacity="1" stop-color="rgb(100%, 78.723145%, 33.595276%)" offset="0.28125"/><stop stop-opacity="1" stop-color="rgb(100%, 78.486633%, 33.558655%)" offset="0.289062"/><stop stop-opacity="1" stop-color="rgb(100%, 78.251648%, 33.522034%)" offset="0.296875"/><stop stop-opacity="1" stop-color="rgb(100%, 78.015137%, 33.485413%)" offset="0.304688"/><stop stop-opacity="1" stop-color="rgb(100%, 77.778625%, 33.448792%)" offset="0.3125"/><stop stop-opacity="1" stop-color="rgb(100%, 77.54364%, 33.41217%)" offset="0.320312"/><stop stop-opacity="1" stop-color="rgb(100%, 77.307129%, 33.375549%)" offset="0.328125"/><stop stop-opacity="1" stop-color="rgb(100%, 77.072144%, 33.338928%)" offset="0.335937"/><stop stop-opacity="1" stop-color="rgb(100%, 76.835632%, 33.302307%)" offset="0.34375"/><stop stop-opacity="1" stop-color="rgb(100%, 76.599121%, 33.265686%)" offset="0.351562"/><stop stop-opacity="1" stop-color="rgb(100%, 76.364136%, 33.229065%)" offset="0.359375"/><stop stop-opacity="1" stop-color="rgb(100%, 76.127625%, 33.192444%)" offset="0.367187"/><stop stop-opacity="1" stop-color="rgb(100%, 75.891113%, 33.154297%)" offset="0.375"/><stop stop-opacity="1" stop-color="rgb(100%, 75.656128%, 33.117676%)" offset="0.382812"/><stop stop-opacity="1" stop-color="rgb(100%, 75.419617%, 33.081055%)" offset="0.390625"/><stop stop-opacity="1" stop-color="rgb(100%, 75.184631%, 33.044434%)" offset="0.398437"/><stop stop-opacity="1" stop-color="rgb(100%, 74.94812%, 33.007812%)" offset="0.40625"/><stop stop-opacity="1" stop-color="rgb(100%, 74.711609%, 32.971191%)" offset="0.414062"/><stop stop-opacity="1" stop-color="rgb(100%, 74.476624%, 32.93457%)" offset="0.421875"/><stop stop-opacity="1" stop-color="rgb(100%, 74.240112%, 32.897949%)" offset="0.429687"/><stop stop-opacity="1" stop-color="rgb(100%, 74.003601%, 32.861328%)" offset="0.4375"/><stop stop-opacity="1" stop-color="rgb(100%, 73.768616%, 32.824707%)" offset="0.445312"/><stop stop-opacity="1" stop-color="rgb(100%, 73.532104%, 32.788086%)" offset="0.453125"/><stop stop-opacity="1" stop-color="rgb(100%, 73.297119%, 32.751465%)" offset="0.460937"/><stop stop-opacity="1" stop-color="rgb(100%, 73.060608%, 32.714844%)" offset="0.46875"/><stop stop-opacity="1" stop-color="rgb(100%, 72.824097%, 32.678223%)" offset="0.476562"/><stop stop-opacity="1" stop-color="rgb(100%, 72.589111%, 32.641602%)" offset="0.484375"/><stop stop-opacity="1" stop-color="rgb(100%, 72.3526%, 32.60498%)" offset="0.492187"/><stop stop-opacity="1" stop-color="rgb(100%, 72.116089%, 32.566833%)" offset="0.5"/><stop stop-opacity="1" stop-color="rgb(100%, 71.881104%, 32.530212%)" offset="0.507812"/><stop stop-opacity="1" stop-color="rgb(100%, 71.644592%, 32.493591%)" offset="0.515625"/><stop stop-opacity="1" stop-color="rgb(100%, 71.409607%, 32.45697%)" offset="0.523438"/><stop stop-opacity="1" stop-color="rgb(100%, 71.173096%, 32.420349%)" offset="0.53125"/><stop stop-opacity="1" stop-color="rgb(100%, 70.936584%, 32.383728%)" offset="0.539062"/><stop stop-opacity="1" stop-color="rgb(100%, 70.701599%, 32.347107%)" offset="0.546875"/><stop stop-opacity="1" stop-color="rgb(100%, 70.465088%, 32.310486%)" offset="0.554688"/><stop stop-opacity="1" stop-color="rgb(100%, 70.228577%, 32.273865%)" offset="0.5625"/><stop stop-opacity="1" stop-color="rgb(100%, 69.993591%, 32.237244%)" offset="0.570312"/><stop stop-opacity="1" stop-color="rgb(100%, 69.75708%, 32.200623%)" offset="0.578125"/><stop stop-opacity="1" stop-color="rgb(100%, 69.522095%, 32.164001%)" offset="0.585938"/><stop stop-opacity="1" stop-color="rgb(100%, 69.285583%, 32.12738%)" offset="0.59375"/><stop stop-opacity="1" stop-color="rgb(100%, 69.049072%, 32.090759%)" offset="0.601562"/><stop stop-opacity="1" stop-color="rgb(100%, 68.814087%, 32.054138%)" offset="0.609375"/><stop stop-opacity="1" stop-color="rgb(100%, 68.577576%, 32.017517%)" offset="0.617188"/><stop stop-opacity="1" stop-color="rgb(100%, 68.341064%, 31.97937%)" offset="0.625"/><stop stop-opacity="1" stop-color="rgb(100%, 68.106079%, 31.942749%)" offset="0.632812"/><stop stop-opacity="1" stop-color="rgb(100%, 67.869568%, 31.906128%)" offset="0.640625"/><stop stop-opacity="1" stop-color="rgb(100%, 67.634583%, 31.869507%)" offset="0.648438"/><stop stop-opacity="1" stop-color="rgb(100%, 67.398071%, 31.832886%)" offset="0.65625"/><stop stop-opacity="1" stop-color="rgb(100%, 67.16156%, 31.796265%)" offset="0.664062"/><stop stop-opacity="1" stop-color="rgb(100%, 66.926575%, 31.759644%)" offset="0.671875"/><stop stop-opacity="1" stop-color="rgb(100%, 66.690063%, 31.723022%)" offset="0.679688"/><stop stop-opacity="1" stop-color="rgb(100%, 66.453552%, 31.686401%)" offset="0.6875"/><stop stop-opacity="1" stop-color="rgb(100%, 66.218567%, 31.64978%)" offset="0.695312"/><stop stop-opacity="1" stop-color="rgb(100%, 65.982056%, 31.613159%)" offset="0.703125"/><stop stop-opacity="1" stop-color="rgb(100%, 65.74707%, 31.576538%)" offset="0.710938"/><stop stop-opacity="1" stop-color="rgb(100%, 65.510559%, 31.539917%)" offset="0.71875"/><stop stop-opacity="1" stop-color="rgb(100%, 65.274048%, 31.503296%)" offset="0.726562"/><stop stop-opacity="1" stop-color="rgb(100%, 65.039062%, 31.466675%)" offset="0.734375"/><stop stop-opacity="1" stop-color="rgb(100%, 64.802551%, 31.428528%)" offset="0.742188"/><stop stop-opacity="1" stop-color="rgb(100%, 64.56604%, 31.391907%)" offset="0.75"/><stop stop-opacity="1" stop-color="rgb(100%, 64.331055%, 31.355286%)" offset="0.757812"/><stop stop-opacity="1" stop-color="rgb(100%, 64.094543%, 31.318665%)" offset="0.765625"/><stop stop-opacity="1" stop-color="rgb(100%, 63.859558%, 31.282043%)" offset="0.773438"/><stop stop-opacity="1" stop-color="rgb(100%, 63.623047%, 31.245422%)" offset="0.78125"/><stop stop-opacity="1" stop-color="rgb(100%, 63.386536%, 31.208801%)" offset="0.789062"/><stop stop-opacity="1" stop-color="rgb(100%, 63.15155%, 31.17218%)" offset="0.796875"/><stop stop-opacity="1" stop-color="rgb(100%, 62.915039%, 31.135559%)" offset="0.804688"/><stop stop-opacity="1" stop-color="rgb(100%, 62.678528%, 31.098938%)" offset="0.8125"/><stop stop-opacity="1" stop-color="rgb(100%, 62.443542%, 31.062317%)" offset="0.820312"/><stop stop-opacity="1" stop-color="rgb(100%, 62.207031%, 31.025696%)" offset="0.828125"/><stop stop-opacity="1" stop-color="rgb(100%, 61.972046%, 30.989075%)" offset="0.835938"/><stop stop-opacity="1" stop-color="rgb(100%, 61.735535%, 30.952454%)" offset="0.84375"/><stop stop-opacity="1" stop-color="rgb(100%, 61.499023%, 30.915833%)" offset="0.851562"/><stop stop-opacity="1" stop-color="rgb(100%, 61.264038%, 30.879211%)" offset="0.859375"/><stop stop-opacity="1" stop-color="rgb(100%, 61.027527%, 30.841064%)" offset="0.867188"/><stop stop-opacity="1" stop-color="rgb(100%, 60.791016%, 30.804443%)" offset="0.875"/><stop stop-opacity="1" stop-color="rgb(100%, 60.55603%, 30.767822%)" offset="0.882812"/><stop stop-opacity="1" stop-color="rgb(100%, 60.319519%, 30.731201%)" offset="0.890625"/><stop stop-opacity="1" stop-color="rgb(100%, 60.084534%, 30.69458%)" offset="0.898438"/><stop stop-opacity="1" stop-color="rgb(100%, 59.848022%, 30.657959%)" offset="0.90625"/><stop stop-opacity="1" stop-color="rgb(100%, 59.611511%, 30.621338%)" offset="0.914062"/><stop stop-opacity="1" stop-color="rgb(100%, 59.376526%, 30.584717%)" offset="0.921875"/><stop stop-opacity="1" stop-color="rgb(100%, 59.140015%, 30.548096%)" offset="0.929688"/><stop stop-opacity="1" stop-color="rgb(100%, 58.903503%, 30.511475%)" offset="0.9375"/><stop stop-opacity="1" stop-color="rgb(100%, 58.668518%, 30.474854%)" offset="0.945312"/><stop stop-opacity="1" stop-color="rgb(100%, 58.432007%, 30.438232%)" offset="0.953125"/><stop stop-opacity="1" stop-color="rgb(100%, 58.197021%, 30.401611%)" offset="0.960938"/><stop stop-opacity="1" stop-color="rgb(100%, 57.96051%, 30.36499%)" offset="0.96875"/><stop stop-opacity="1" stop-color="rgb(100%, 57.723999%, 30.328369%)" offset="0.976562"/><stop stop-opacity="1" stop-color="rgb(100%, 57.489014%, 30.291748%)" offset="0.984375"/><stop stop-opacity="1" stop-color="rgb(100%, 57.252502%, 30.253601%)" offset="0.992188"/><stop stop-opacity="1" stop-color="rgb(100%, 57.015991%, 30.21698%)" offset="1"/></linearGradient></defs><g clip-path="url(#7dda42a3e8)"><g clip-path="url(#abe365928c)"><path fill="url(#794bafab78)" d="M 81.195312 0.140625 L 81.195312 262.265625 L 364.09375 262.265625 L 364.09375 0.140625 Z M 81.195312 0.140625 " fill-rule="nonzero"/></g></g><g fill="#00bf63" fill-opacity="1"><g transform="translate(40.787222, 72.00653)"><g><path d="M 3.96875 -54.5 L 23.84375 -54.5 C 29.394531 -54.5 33.890625 -53.066406 37.328125 -50.203125 C 40.765625 -47.335938 42.484375 -43.175781 42.484375 -37.71875 C 42.484375 -32.257812 40.742188 -27.976562 37.265625 -24.875 C 33.785156 -21.769531 29.3125 -20.21875 23.84375 -20.21875 L 16.390625 -20.21875 L 16.390625 0 L 3.96875 0 Z M 16.390625 -30.125 L 19.890625 -30.125 C 22.660156 -30.125 24.9375 -30.6875 26.71875 -31.8125 C 28.5 -32.9375 29.390625 -34.773438 29.390625 -37.328125 C 29.390625 -39.921875 28.5 -41.78125 26.71875 -42.90625 C 24.9375 -44.03125 22.660156 -44.59375 19.890625 -44.59375 L 16.390625 -44.59375 Z M 16.390625 -30.125 "/></g></g></g><g fill="#00bf63" fill-opacity="1"><g transform="translate(85.767676, 72.00653)"><g><path d="M 6.265625 -4.1875 C 3.097656 -7.644531 1.515625 -11.882812 1.515625 -16.90625 C 1.515625 -21.925781 3.097656 -26.175781 6.265625 -29.65625 C 9.441406 -33.132812 13.472656 -34.875 18.359375 -34.875 C 22.859375 -34.875 26.5625 -33.46875 29.46875 -30.65625 L 29.46875 -33.890625 L 41.15625 -33.890625 L 41.15625 0 L 29.59375 0 L 29.59375 -3.828125 L 29.46875 -3.828125 C 26.5625 -0.617188 22.859375 0.984375 18.359375 0.984375 C 13.472656 0.984375 9.441406 -0.738281 6.265625 -4.1875 Z M 16.21875 -22.65625 C 14.695312 -21.15625 13.9375 -19.238281 13.9375 -16.90625 C 13.9375 -14.570312 14.660156 -12.664062 16.109375 -11.1875 C 17.566406 -9.71875 19.484375 -8.984375 21.859375 -8.984375 C 24.148438 -8.984375 26.035156 -9.734375 27.515625 -11.234375 C 28.992188 -12.734375 29.734375 -14.625 29.734375 -16.90625 C 29.734375 -19.238281 28.972656 -21.15625 27.453125 -22.65625 C 25.929688 -24.15625 24.066406 -24.90625 21.859375 -24.90625 C 19.617188 -24.90625 17.738281 -24.15625 16.21875 -22.65625 Z M 16.21875 -22.65625 "/></g></g></g><g fill="#00bf63" fill-opacity="1"><g transform="translate(131.870991, 72.00653)"><g><path d="M 3.96875 0 L 3.96875 -33.890625 L 15.65625 -33.890625 L 15.65625 -29 L 15.78125 -29 C 15.875 -29.175781 16.019531 -29.394531 16.21875 -29.65625 C 16.414062 -29.925781 16.84375 -30.390625 17.5 -31.046875 C 18.164062 -31.710938 18.875 -32.304688 19.625 -32.828125 C 20.375 -33.359375 21.34375 -33.832031 22.53125 -34.25 C 23.71875 -34.664062 24.925781 -34.875 26.15625 -34.875 C 27.4375 -34.875 28.691406 -34.695312 29.921875 -34.34375 C 31.160156 -34 32.066406 -33.648438 32.640625 -33.296875 L 33.5625 -32.765625 L 28.671875 -22.859375 C 27.210938 -24.085938 25.1875 -24.703125 22.59375 -24.703125 C 21.1875 -24.703125 19.972656 -24.394531 18.953125 -23.78125 C 17.941406 -23.164062 17.226562 -22.414062 16.8125 -21.53125 C 16.394531 -20.65625 16.097656 -19.90625 15.921875 -19.28125 C 15.742188 -18.664062 15.65625 -18.1875 15.65625 -17.84375 L 15.65625 0 Z M 3.96875 0 "/></g></g></g><g fill="#00bf63" fill-opacity="1"><g transform="translate(165.754984, 72.00653)"><g><path d="M 42.671875 -33.890625 L 26.5625 -17.703125 L 44.265625 0 L 29.203125 0 L 15.65625 -13.546875 L 15.65625 0 L 3.96875 0 L 3.96875 -56.8125 L 15.65625 -56.8125 L 15.65625 -22.0625 L 27.484375 -33.890625 Z M 42.671875 -33.890625 "/></g></g></g><g fill="#00bf63" fill-opacity="1"><g transform="translate(209.414433, 72.00653)"><g><path d="M 18.703125 -34.875 C 20.640625 -34.875 22.550781 -34.65625 24.4375 -34.21875 C 26.332031 -33.78125 27.742188 -33.34375 28.671875 -32.90625 L 30.0625 -32.234375 L 26.234375 -24.578125 C 23.585938 -25.984375 21.078125 -26.6875 18.703125 -26.6875 C 17.378906 -26.6875 16.441406 -26.539062 15.890625 -26.25 C 15.335938 -25.96875 15.0625 -25.429688 15.0625 -24.640625 C 15.0625 -24.460938 15.082031 -24.285156 15.125 -24.109375 C 15.164062 -23.929688 15.253906 -23.765625 15.390625 -23.609375 C 15.523438 -23.460938 15.644531 -23.332031 15.75 -23.21875 C 15.863281 -23.113281 16.050781 -22.992188 16.3125 -22.859375 C 16.582031 -22.722656 16.789062 -22.625 16.9375 -22.5625 C 17.09375 -22.5 17.347656 -22.398438 17.703125 -22.265625 C 18.054688 -22.128906 18.320312 -22.023438 18.5 -21.953125 C 18.675781 -21.890625 18.972656 -21.789062 19.390625 -21.65625 C 19.804688 -21.53125 20.125 -21.445312 20.34375 -21.40625 C 21.707031 -21.007812 22.894531 -20.566406 23.90625 -20.078125 C 24.925781 -19.597656 25.992188 -18.9375 27.109375 -18.09375 C 28.234375 -17.257812 29.101562 -16.203125 29.71875 -14.921875 C 30.34375 -13.648438 30.65625 -12.195312 30.65625 -10.5625 C 30.65625 -2.863281 25.300781 0.984375 14.59375 0.984375 C 12.175781 0.984375 9.875 0.613281 7.6875 -0.125 C 5.507812 -0.875 3.9375 -1.625 2.96875 -2.375 L 1.515625 -3.5625 L 6.28125 -11.5625 C 6.625 -11.25 7.082031 -10.882812 7.65625 -10.46875 C 8.226562 -10.050781 9.265625 -9.476562 10.765625 -8.75 C 12.265625 -8.019531 13.566406 -7.65625 14.671875 -7.65625 C 17.085938 -7.65625 18.296875 -8.472656 18.296875 -10.109375 C 18.296875 -10.859375 17.988281 -11.441406 17.375 -11.859375 C 16.757812 -12.273438 15.710938 -12.75 14.234375 -13.28125 C 12.753906 -13.8125 11.597656 -14.296875 10.765625 -14.734375 C 8.648438 -15.835938 6.972656 -17.082031 5.734375 -18.46875 C 4.503906 -19.851562 3.890625 -21.691406 3.890625 -23.984375 C 3.890625 -27.421875 5.222656 -30.09375 7.890625 -32 C 10.554688 -33.914062 14.160156 -34.875 18.703125 -34.875 Z M 18.703125 -34.875 "/></g></g></g><g fill="#00bf63" fill-opacity="1"><g transform="translate(242.906537, 72.00653)"><g/></g></g><g fill="#00bf63" fill-opacity="1"><g transform="translate(0.0000045, 120.073315)"><g><path d="M 3.671875 -50.484375 L 21.71875 -50.484375 C 26.570312 -50.484375 30.53125 -49.1875 33.59375 -46.59375 C 36.65625 -44 38.1875 -40.296875 38.1875 -35.484375 C 38.1875 -31.773438 37.253906 -28.664062 35.390625 -26.15625 C 33.535156 -23.644531 31.019531 -21.878906 27.84375 -20.859375 L 45.21875 0 L 30.59375 0 L 15.171875 -19.953125 L 15.171875 0 L 3.671875 0 Z M 15.171875 -28.078125 L 16.515625 -28.078125 C 17.578125 -28.078125 18.472656 -28.097656 19.203125 -28.140625 C 19.941406 -28.179688 20.78125 -28.320312 21.71875 -28.5625 C 22.65625 -28.8125 23.410156 -29.160156 23.984375 -29.609375 C 24.554688 -30.054688 25.046875 -30.707031 25.453125 -31.5625 C 25.859375 -32.425781 26.0625 -33.46875 26.0625 -34.6875 C 26.0625 -35.914062 25.859375 -36.957031 25.453125 -37.8125 C 25.046875 -38.664062 24.554688 -39.316406 23.984375 -39.765625 C 23.410156 -40.210938 22.65625 -40.554688 21.71875 -40.796875 C 20.78125 -41.046875 19.941406 -41.191406 19.203125 -41.234375 C 18.472656 -41.273438 17.578125 -41.296875 16.515625 -41.296875 L 15.171875 -41.296875 Z M 15.171875 -28.078125 "/></g></g></g><g fill="#00bf63" fill-opacity="1"><g transform="translate(44.726973, 120.073315)"><g><path d="M 35.421875 -14.203125 L 12.671875 -14.203125 C 12.671875 -11.992188 13.382812 -10.359375 14.8125 -9.296875 C 16.238281 -8.234375 17.785156 -7.703125 19.453125 -7.703125 C 21.210938 -7.703125 22.597656 -7.9375 23.609375 -8.40625 C 24.628906 -8.875 25.796875 -9.804688 27.109375 -11.203125 L 34.9375 -7.28125 C 31.675781 -1.8125 26.25 0.921875 18.65625 0.921875 C 13.925781 0.921875 9.867188 -0.695312 6.484375 -3.9375 C 3.097656 -7.1875 1.40625 -11.09375 1.40625 -15.65625 C 1.40625 -20.226562 3.097656 -24.144531 6.484375 -27.40625 C 9.867188 -30.675781 13.925781 -32.3125 18.65625 -32.3125 C 23.632812 -32.3125 27.679688 -30.867188 30.796875 -27.984375 C 33.921875 -25.109375 35.484375 -21 35.484375 -15.65625 C 35.484375 -14.925781 35.460938 -14.441406 35.421875 -14.203125 Z M 12.96875 -20.1875 L 24.90625 -20.1875 C 24.65625 -21.820312 24.007812 -23.078125 22.96875 -23.953125 C 21.9375 -24.828125 20.601562 -25.265625 18.96875 -25.265625 C 17.175781 -25.265625 15.75 -24.796875 14.6875 -23.859375 C 13.625 -22.921875 13.050781 -21.695312 12.96875 -20.1875 Z M 12.96875 -20.1875 "/></g></g></g><g fill="#00bf63" fill-opacity="1"><g transform="translate(82.53994, 120.073315)"><g><path d="M 20.375 -23.4375 C 18.332031 -23.4375 16.578125 -22.679688 15.109375 -21.171875 C 13.640625 -19.660156 12.90625 -17.84375 12.90625 -15.71875 C 12.90625 -13.5625 13.640625 -11.726562 15.109375 -10.21875 C 16.578125 -8.707031 18.332031 -7.953125 20.375 -7.953125 C 21.351562 -7.953125 22.28125 -8.070312 23.15625 -8.3125 C 24.03125 -8.5625 24.675781 -8.8125 25.09375 -9.0625 L 25.640625 -9.421875 L 29.3125 -1.890625 C 29.019531 -1.691406 28.617188 -1.4375 28.109375 -1.125 C 27.597656 -0.820312 26.4375 -0.40625 24.625 0.125 C 22.8125 0.65625 20.863281 0.921875 18.78125 0.921875 C 14.175781 0.921875 10.128906 -0.695312 6.640625 -3.9375 C 3.148438 -7.1875 1.40625 -11.078125 1.40625 -15.609375 C 1.40625 -20.171875 3.148438 -24.09375 6.640625 -27.375 C 10.128906 -30.664062 14.175781 -32.3125 18.78125 -32.3125 C 20.863281 -32.3125 22.78125 -32.066406 24.53125 -31.578125 C 26.289062 -31.085938 27.535156 -30.597656 28.265625 -30.109375 L 29.3125 -29.375 L 25.640625 -21.96875 C 24.296875 -22.945312 22.539062 -23.4375 20.375 -23.4375 Z M 20.375 -23.4375 "/></g></g></g><g fill="#00bf63" fill-opacity="1"><g transform="translate(113.500091, 120.073315)"><g><path d="M 3.671875 0 L 3.671875 -31.390625 L 14.5 -31.390625 L 14.5 -26.859375 L 14.625 -26.859375 C 14.707031 -27.023438 14.835938 -27.226562 15.015625 -27.46875 C 15.203125 -27.71875 15.597656 -28.144531 16.203125 -28.75 C 16.816406 -29.363281 17.472656 -29.914062 18.171875 -30.40625 C 18.867188 -30.894531 19.765625 -31.332031 20.859375 -31.71875 C 21.960938 -32.113281 23.085938 -32.3125 24.234375 -32.3125 C 25.410156 -32.3125 26.570312 -32.144531 27.71875 -31.8125 C 28.863281 -31.488281 29.703125 -31.164062 30.234375 -30.84375 L 31.078125 -30.34375 L 26.5625 -21.171875 C 25.207031 -22.316406 23.328125 -22.890625 20.921875 -22.890625 C 19.617188 -22.890625 18.5 -22.601562 17.5625 -22.03125 C 16.625 -21.457031 15.957031 -20.757812 15.5625 -19.9375 C 15.175781 -19.125 14.898438 -18.429688 14.734375 -17.859375 C 14.578125 -17.296875 14.5 -16.847656 14.5 -16.515625 L 14.5 0 Z M 3.671875 0 "/></g></g></g><g fill="#00bf63" fill-opacity="1"><g transform="translate(144.888538, 120.073315)"><g><path d="M 35.421875 -14.203125 L 12.671875 -14.203125 C 12.671875 -11.992188 13.382812 -10.359375 14.8125 -9.296875 C 16.238281 -8.234375 17.785156 -7.703125 19.453125 -7.703125 C 21.210938 -7.703125 22.597656 -7.9375 23.609375 -8.40625 C 24.628906 -8.875 25.796875 -9.804688 27.109375 -11.203125 L 34.9375 -7.28125 C 31.675781 -1.8125 26.25 0.921875 18.65625 0.921875 C 13.925781 0.921875 9.867188 -0.695312 6.484375 -3.9375 C 3.097656 -7.1875 1.40625 -11.09375 1.40625 -15.65625 C 1.40625 -20.226562 3.097656 -24.144531 6.484375 -27.40625 C 9.867188 -30.675781 13.925781 -32.3125 18.65625 -32.3125 C 23.632812 -32.3125 27.679688 -30.867188 30.796875 -27.984375 C 33.921875 -25.109375 35.484375 -21 35.484375 -15.65625 C 35.484375 -14.925781 35.460938 -14.441406 35.421875 -14.203125 Z M 12.96875 -20.1875 L 24.90625 -20.1875 C 24.65625 -21.820312 24.007812 -23.078125 22.96875 -23.953125 C 21.9375 -24.828125 20.601562 -25.265625 18.96875 -25.265625 C 17.175781 -25.265625 15.75 -24.796875 14.6875 -23.859375 C 13.625 -22.921875 13.050781 -21.695312 12.96875 -20.1875 Z M 12.96875 -20.1875 "/></g></g></g><g fill="#00bf63" fill-opacity="1"><g transform="translate(182.701497, 120.073315)"><g><path d="M 5.8125 -3.875 C 2.875 -7.082031 1.40625 -11.007812 1.40625 -15.65625 C 1.40625 -20.3125 2.875 -24.25 5.8125 -27.46875 C 8.75 -30.695312 12.484375 -32.3125 17.015625 -32.3125 C 21.171875 -32.3125 24.597656 -31.003906 27.296875 -28.390625 L 27.296875 -31.390625 L 38.125 -31.390625 L 38.125 0 L 27.40625 0 L 27.40625 -3.546875 L 27.296875 -3.546875 C 24.597656 -0.566406 21.171875 0.921875 17.015625 0.921875 C 12.484375 0.921875 8.75 -0.675781 5.8125 -3.875 Z M 15.015625 -20.984375 C 13.609375 -19.597656 12.90625 -17.820312 12.90625 -15.65625 C 12.90625 -13.5 13.578125 -11.738281 14.921875 -10.375 C 16.273438 -9.007812 18.050781 -8.328125 20.25 -8.328125 C 22.375 -8.328125 24.117188 -9.019531 25.484375 -10.40625 C 26.847656 -11.789062 27.53125 -13.539062 27.53125 -15.65625 C 27.53125 -17.820312 26.828125 -19.597656 25.421875 -20.984375 C 24.015625 -22.367188 22.289062 -23.0625 20.25 -23.0625 C 18.164062 -23.0625 16.421875 -22.367188 15.015625 -20.984375 Z M 15.015625 -20.984375 "/></g></g></g><g fill="#00bf63" fill-opacity="1"><g transform="translate(225.409327, 120.073315)"><g><path d="M 5.5 -31.390625 L 5.5 -43.078125 L 16.34375 -43.078125 L 16.34375 -31.390625 L 22.953125 -31.390625 L 22.953125 -23.125 L 16.34375 -23.125 L 16.34375 -13.15625 C 16.34375 -10.257812 17.15625 -8.8125 18.78125 -8.8125 C 19.1875 -8.8125 19.613281 -8.890625 20.0625 -9.046875 C 20.519531 -9.210938 20.867188 -9.378906 21.109375 -9.546875 L 21.484375 -9.796875 L 24.171875 -1.046875 C 21.847656 0.265625 19.195312 0.921875 16.21875 0.921875 C 14.175781 0.921875 12.421875 0.566406 10.953125 -0.140625 C 9.484375 -0.859375 8.367188 -1.816406 7.609375 -3.015625 C 6.859375 -4.222656 6.316406 -5.488281 5.984375 -6.8125 C 5.660156 -8.144531 5.5 -9.566406 5.5 -11.078125 L 5.5 -23.125 L 0.984375 -23.125 L 0.984375 -31.390625 Z M 5.5 -31.390625 "/></g></g></g><g fill="#00bf63" fill-opacity="1"><g transform="translate(250.49563, 120.073315)"><g><path d="M 4.703125 -48.875 C 5.972656 -50.144531 7.484375 -50.78125 9.234375 -50.78125 C 10.992188 -50.78125 12.503906 -50.144531 13.765625 -48.875 C 15.023438 -47.613281 15.65625 -46.109375 15.65625 -44.359375 C 15.65625 -42.609375 15.023438 -41.097656 13.765625 -39.828125 C 12.503906 -38.566406 10.992188 -37.9375 9.234375 -37.9375 C 7.484375 -37.9375 5.972656 -38.566406 4.703125 -39.828125 C 3.441406 -41.097656 2.8125 -42.609375 2.8125 -44.359375 C 2.8125 -46.109375 3.441406 -47.613281 4.703125 -48.875 Z M 3.671875 -31.390625 L 3.671875 0 L 14.5 0 L 14.5 -31.390625 Z M 3.671875 -31.390625 "/></g></g></g><g fill="#00bf63" fill-opacity="1"><g transform="translate(269.891646, 120.073315)"><g><path d="M 6.640625 -3.71875 C 3.148438 -6.820312 1.40625 -10.800781 1.40625 -15.65625 C 1.40625 -20.519531 3.21875 -24.507812 6.84375 -27.625 C 10.476562 -30.75 14.96875 -32.3125 20.3125 -32.3125 C 25.570312 -32.3125 30.003906 -30.738281 33.609375 -27.59375 C 37.222656 -24.457031 39.03125 -20.476562 39.03125 -15.65625 C 39.03125 -10.84375 37.265625 -6.875 33.734375 -3.75 C 30.210938 -0.632812 25.738281 0.921875 20.3125 0.921875 C 14.6875 0.921875 10.128906 -0.625 6.640625 -3.71875 Z M 15.015625 -20.984375 C 13.609375 -19.597656 12.90625 -17.820312 12.90625 -15.65625 C 12.90625 -13.5 13.578125 -11.738281 14.921875 -10.375 C 16.273438 -9.007812 18.050781 -8.328125 20.25 -8.328125 C 22.375 -8.328125 24.117188 -9.019531 25.484375 -10.40625 C 26.847656 -11.789062 27.53125 -13.539062 27.53125 -15.65625 C 27.53125 -17.820312 26.828125 -19.597656 25.421875 -20.984375 C 24.015625 -22.367188 22.289062 -23.0625 20.25 -23.0625 C 18.164062 -23.0625 16.421875 -22.367188 15.015625 -20.984375 Z M 15.015625 -20.984375 "/></g></g></g><g fill="#00bf63" fill-opacity="1"><g transform="translate(311.253394, 120.073315)"><g><path d="M 3.671875 0 L 3.671875 -31.390625 L 14.5 -31.390625 L 14.5 -28.078125 L 14.625 -28.078125 C 17.4375 -30.898438 20.4375 -32.3125 23.625 -32.3125 C 25.164062 -32.3125 26.703125 -32.101562 28.234375 -31.6875 C 29.765625 -31.28125 31.234375 -30.648438 32.640625 -29.796875 C 34.046875 -28.941406 35.1875 -27.726562 36.0625 -26.15625 C 36.945312 -24.582031 37.390625 -22.757812 37.390625 -20.6875 L 37.390625 0 L 26.5625 0 L 26.5625 -17.75 C 26.5625 -19.375 26.039062 -20.796875 25 -22.015625 C 23.957031 -23.242188 22.597656 -23.859375 20.921875 -23.859375 C 19.296875 -23.859375 17.816406 -23.222656 16.484375 -21.953125 C 15.160156 -20.691406 14.5 -19.289062 14.5 -17.75 L 14.5 0 Z M 3.671875 0 "/></g></g></g><g fill="#00bf63" fill-opacity="1"><g transform="translate(247.330711, 61.053292)"><g><path d="M 2.4375 -1.625 C 1.207031 -2.976562 0.59375 -4.628906 0.59375 -6.578125 C 0.59375 -8.535156 1.207031 -10.191406 2.4375 -11.546875 C 3.675781 -12.910156 5.25 -13.59375 7.15625 -13.59375 C 8.90625 -13.59375 10.347656 -13.039062 11.484375 -11.9375 L 11.484375 -13.203125 L 16.03125 -13.203125 L 16.03125 0 L 11.53125 0 L 11.53125 -1.5 L 11.484375 -1.5 C 10.347656 -0.238281 8.90625 0.390625 7.15625 0.390625 C 5.25 0.390625 3.675781 -0.28125 2.4375 -1.625 Z M 6.3125 -8.828125 C 5.726562 -8.242188 5.4375 -7.492188 5.4375 -6.578125 C 5.4375 -5.671875 5.71875 -4.929688 6.28125 -4.359375 C 6.84375 -3.785156 7.585938 -3.5 8.515625 -3.5 C 9.410156 -3.5 10.144531 -3.789062 10.71875 -4.375 C 11.289062 -4.957031 11.578125 -5.695312 11.578125 -6.59375 C 11.578125 -7.5 11.28125 -8.242188 10.6875 -8.828125 C 10.101562 -9.410156 9.378906 -9.703125 8.515625 -9.703125 C 7.640625 -9.703125 6.90625 -9.410156 6.3125 -8.828125 Z M 6.3125 -8.828125 "/></g></g></g><g fill="#00bf63" fill-opacity="1"><g transform="translate(265.286413, 61.053292)"><g><path d="M 1.546875 0 L 1.546875 -13.203125 L 6.09375 -13.203125 L 6.09375 -11.8125 L 6.15625 -11.8125 C 7.332031 -13 8.59375 -13.59375 9.9375 -13.59375 C 10.582031 -13.59375 11.226562 -13.503906 11.875 -13.328125 C 12.519531 -13.160156 13.132812 -12.894531 13.71875 -12.53125 C 14.3125 -12.175781 14.789062 -11.664062 15.15625 -11 C 15.53125 -10.34375 15.71875 -9.578125 15.71875 -8.703125 L 15.71875 0 L 11.171875 0 L 11.171875 -7.46875 C 11.171875 -8.15625 10.953125 -8.753906 10.515625 -9.265625 C 10.078125 -9.773438 9.503906 -10.03125 8.796875 -10.03125 C 8.109375 -10.03125 7.484375 -9.765625 6.921875 -9.234375 C 6.367188 -8.703125 6.09375 -8.113281 6.09375 -7.46875 L 6.09375 0 Z M 1.546875 0 "/></g></g></g><g fill="#00bf63" fill-opacity="1"><g transform="translate(282.676179, 61.053292)"><g><path d="M 2.4375 -1.625 C 1.207031 -2.976562 0.59375 -4.628906 0.59375 -6.578125 C 0.59375 -8.535156 1.207031 -10.191406 2.4375 -11.546875 C 3.675781 -12.910156 5.25 -13.59375 7.15625 -13.59375 C 8.90625 -13.59375 10.347656 -13.039062 11.484375 -11.9375 L 11.484375 -22.125 L 16.03125 -22.125 L 16.03125 0 L 11.53125 0 L 11.53125 -1.5 L 11.484375 -1.5 C 10.347656 -0.238281 8.90625 0.390625 7.15625 0.390625 C 5.25 0.390625 3.675781 -0.28125 2.4375 -1.625 Z M 6.3125 -8.828125 C 5.726562 -8.242188 5.4375 -7.492188 5.4375 -6.578125 C 5.4375 -5.671875 5.71875 -4.929688 6.28125 -4.359375 C 6.84375 -3.785156 7.585938 -3.5 8.515625 -3.5 C 9.410156 -3.5 10.144531 -3.789062 10.71875 -4.375 C 11.289062 -4.957031 11.578125 -5.695312 11.578125 -6.59375 C 11.578125 -7.5 11.28125 -8.242188 10.6875 -8.828125 C 10.101562 -9.410156 9.378906 -9.703125 8.515625 -9.703125 C 7.640625 -9.703125 6.90625 -9.410156 6.3125 -8.828125 Z M 6.3125 -8.828125 "/></g></g></g></svg>