<svg xmlns="http://www.w3.org/2000/svg" xmlns:xlink="http://www.w3.org/1999/xlink" width="1080" zoomAndPan="magnify" viewBox="0 0 810 809.999993" height="1080" preserveAspectRatio="xMidYMid meet" version="1.0"><defs><g/><clipPath id="58702a851e"><path d="M 210.65625 313.847656 L 599.6875 313.847656 L 599.6875 674.3125 L 210.65625 674.3125 Z M 210.65625 313.847656 " clip-rule="nonzero"/></clipPath><clipPath id="6a0d6136f7"><path d="M 225.660156 371.242188 C 195.078125 426.300781 216.328125 479.890625 244.292969 508.332031 L 407.800781 674.3125 L 567.863281 508.925781 C 593.871094 478.328125 603.589844 445.875 598.304688 409.734375 C 590.65625 359.742188 551.71875 320.957031 503.621094 315.417969 C 474.121094 312.238281 445.621094 320.890625 423.378906 340.445312 C 417.394531 345.707031 412.042969 351.589844 407.378906 357.984375 C 401.847656 350.703125 395.359375 344.042969 388.023438 338.144531 C 362.445312 317.578125 329.890625 309.894531 298.617188 315.761719 C 268.996094 321.816406 242.414062 342.03125 225.660156 371.242188 Z M 225.660156 371.242188 " clip-rule="nonzero"/></clipPath><linearGradient x1="0.316" gradientTransform="matrix(1.40881, 0.000000000000000175, -0.000000000000000175, 1.40881, 210.212132, 313.656147)" y1="128.069" x2="276.457991" gradientUnits="userSpaceOnUse" y2="128.069" id="4258d648b0"><stop stop-opacity="1" stop-color="rgb(100%, 87.098694%, 34.899902%)" offset="0"/><stop stop-opacity="1" stop-color="rgb(100%, 86.981201%, 34.881592%)" offset="0.0078125"/><stop stop-opacity="1" stop-color="rgb(100%, 86.74469%, 34.843445%)" offset="0.015625"/><stop stop-opacity="1" stop-color="rgb(100%, 86.508179%, 34.806824%)" offset="0.0234375"/><stop stop-opacity="1" stop-color="rgb(100%, 86.273193%, 34.770203%)" offset="0.03125"/><stop stop-opacity="1" stop-color="rgb(100%, 86.036682%, 34.733582%)" offset="0.0390625"/><stop stop-opacity="1" stop-color="rgb(100%, 85.801697%, 34.69696%)" offset="0.046875"/><stop stop-opacity="1" stop-color="rgb(100%, 85.565186%, 34.660339%)" offset="0.0546875"/><stop stop-opacity="1" stop-color="rgb(100%, 85.328674%, 34.623718%)" offset="0.0625"/><stop stop-opacity="1" stop-color="rgb(100%, 85.093689%, 34.587097%)" offset="0.0703125"/><stop stop-opacity="1" stop-color="rgb(100%, 84.857178%, 34.550476%)" offset="0.078125"/><stop stop-opacity="1" stop-color="rgb(100%, 84.620667%, 34.513855%)" offset="0.0859375"/><stop stop-opacity="1" stop-color="rgb(100%, 84.385681%, 34.477234%)" offset="0.09375"/><stop stop-opacity="1" stop-color="rgb(100%, 84.14917%, 34.440613%)" offset="0.101562"/><stop stop-opacity="1" stop-color="rgb(100%, 83.914185%, 34.403992%)" offset="0.109375"/><stop stop-opacity="1" stop-color="rgb(100%, 83.677673%, 34.367371%)" offset="0.117188"/><stop stop-opacity="1" stop-color="rgb(100%, 83.441162%, 34.33075%)" offset="0.125"/><stop stop-opacity="1" stop-color="rgb(100%, 83.206177%, 34.292603%)" offset="0.132813"/><stop stop-opacity="1" stop-color="rgb(100%, 82.969666%, 34.255981%)" offset="0.140625"/><stop stop-opacity="1" stop-color="rgb(100%, 82.73468%, 34.21936%)" offset="0.148438"/><stop stop-opacity="1" stop-color="rgb(100%, 82.498169%, 34.182739%)" offset="0.15625"/><stop stop-opacity="1" stop-color="rgb(100%, 82.261658%, 34.146118%)" offset="0.164063"/><stop stop-opacity="1" stop-color="rgb(100%, 82.026672%, 34.109497%)" offset="0.171875"/><stop stop-opacity="1" stop-color="rgb(100%, 81.790161%, 34.072876%)" offset="0.179688"/><stop stop-opacity="1" stop-color="rgb(100%, 81.55365%, 34.036255%)" offset="0.1875"/><stop stop-opacity="1" stop-color="rgb(100%, 81.318665%, 33.999634%)" offset="0.195313"/><stop stop-opacity="1" stop-color="rgb(100%, 81.082153%, 33.963013%)" offset="0.203125"/><stop stop-opacity="1" stop-color="rgb(100%, 80.847168%, 33.926392%)" offset="0.210938"/><stop stop-opacity="1" stop-color="rgb(100%, 80.610657%, 33.889771%)" offset="0.21875"/><stop stop-opacity="1" stop-color="rgb(100%, 80.374146%, 33.853149%)" offset="0.226563"/><stop stop-opacity="1" stop-color="rgb(100%, 80.13916%, 33.816528%)" offset="0.234375"/><stop stop-opacity="1" stop-color="rgb(100%, 79.902649%, 33.779907%)" offset="0.242188"/><stop stop-opacity="1" stop-color="rgb(100%, 79.666138%, 33.743286%)" offset="0.25"/><stop stop-opacity="1" stop-color="rgb(100%, 79.431152%, 33.705139%)" offset="0.257812"/><stop stop-opacity="1" stop-color="rgb(100%, 79.194641%, 33.668518%)" offset="0.265625"/><stop stop-opacity="1" stop-color="rgb(100%, 78.959656%, 33.631897%)" offset="0.273438"/><stop stop-opacity="1" stop-color="rgb(100%, 78.723145%, 33.595276%)" offset="0.28125"/><stop stop-opacity="1" stop-color="rgb(100%, 78.486633%, 33.558655%)" offset="0.289063"/><stop stop-opacity="1" stop-color="rgb(100%, 78.251648%, 33.522034%)" offset="0.296875"/><stop stop-opacity="1" stop-color="rgb(100%, 78.015137%, 33.485413%)" offset="0.304688"/><stop stop-opacity="1" stop-color="rgb(100%, 77.778625%, 33.448792%)" offset="0.3125"/><stop stop-opacity="1" stop-color="rgb(100%, 77.54364%, 33.41217%)" offset="0.320312"/><stop stop-opacity="1" stop-color="rgb(100%, 77.307129%, 33.375549%)" offset="0.328125"/><stop stop-opacity="1" stop-color="rgb(100%, 77.072144%, 33.338928%)" offset="0.335938"/><stop stop-opacity="1" stop-color="rgb(100%, 76.835632%, 33.302307%)" offset="0.34375"/><stop stop-opacity="1" stop-color="rgb(100%, 76.599121%, 33.265686%)" offset="0.351563"/><stop stop-opacity="1" stop-color="rgb(100%, 76.364136%, 33.229065%)" offset="0.359375"/><stop stop-opacity="1" stop-color="rgb(100%, 76.127625%, 33.192444%)" offset="0.367188"/><stop stop-opacity="1" stop-color="rgb(100%, 75.891113%, 33.154297%)" offset="0.375"/><stop stop-opacity="1" stop-color="rgb(100%, 75.656128%, 33.117676%)" offset="0.382812"/><stop stop-opacity="1" stop-color="rgb(100%, 75.419617%, 33.081055%)" offset="0.390625"/><stop stop-opacity="1" stop-color="rgb(100%, 75.184631%, 33.044434%)" offset="0.398437"/><stop stop-opacity="1" stop-color="rgb(100%, 74.94812%, 33.007812%)" offset="0.40625"/><stop stop-opacity="1" stop-color="rgb(100%, 74.711609%, 32.971191%)" offset="0.414063"/><stop stop-opacity="1" stop-color="rgb(100%, 74.476624%, 32.93457%)" offset="0.421875"/><stop stop-opacity="1" stop-color="rgb(100%, 74.240112%, 32.897949%)" offset="0.429688"/><stop stop-opacity="1" stop-color="rgb(100%, 74.003601%, 32.861328%)" offset="0.4375"/><stop stop-opacity="1" stop-color="rgb(100%, 73.768616%, 32.824707%)" offset="0.445312"/><stop stop-opacity="1" stop-color="rgb(100%, 73.532104%, 32.788086%)" offset="0.453125"/><stop stop-opacity="1" stop-color="rgb(100%, 73.297119%, 32.751465%)" offset="0.460938"/><stop stop-opacity="1" stop-color="rgb(100%, 73.060608%, 32.714844%)" offset="0.46875"/><stop stop-opacity="1" stop-color="rgb(100%, 72.824097%, 32.678223%)" offset="0.476563"/><stop stop-opacity="1" stop-color="rgb(100%, 72.589111%, 32.641602%)" offset="0.484375"/><stop stop-opacity="1" stop-color="rgb(100%, 72.3526%, 32.60498%)" offset="0.492188"/><stop stop-opacity="1" stop-color="rgb(100%, 72.116089%, 32.566833%)" offset="0.5"/><stop stop-opacity="1" stop-color="rgb(100%, 71.881104%, 32.530212%)" offset="0.507812"/><stop stop-opacity="1" stop-color="rgb(100%, 71.644592%, 32.493591%)" offset="0.515625"/><stop stop-opacity="1" stop-color="rgb(100%, 71.409607%, 32.45697%)" offset="0.523438"/><stop stop-opacity="1" stop-color="rgb(100%, 71.173096%, 32.420349%)" offset="0.53125"/><stop stop-opacity="1" stop-color="rgb(100%, 70.936584%, 32.383728%)" offset="0.539062"/><stop stop-opacity="1" stop-color="rgb(100%, 70.701599%, 32.347107%)" offset="0.546875"/><stop stop-opacity="1" stop-color="rgb(100%, 70.465088%, 32.310486%)" offset="0.554688"/><stop stop-opacity="1" stop-color="rgb(100%, 70.228577%, 32.273865%)" offset="0.5625"/><stop stop-opacity="1" stop-color="rgb(100%, 69.993591%, 32.237244%)" offset="0.570312"/><stop stop-opacity="1" stop-color="rgb(100%, 69.75708%, 32.200623%)" offset="0.578125"/><stop stop-opacity="1" stop-color="rgb(100%, 69.522095%, 32.164001%)" offset="0.585938"/><stop stop-opacity="1" stop-color="rgb(100%, 69.285583%, 32.12738%)" offset="0.59375"/><stop stop-opacity="1" stop-color="rgb(100%, 69.049072%, 32.090759%)" offset="0.601563"/><stop stop-opacity="1" stop-color="rgb(100%, 68.814087%, 32.054138%)" offset="0.609375"/><stop stop-opacity="1" stop-color="rgb(100%, 68.577576%, 32.017517%)" offset="0.617188"/><stop stop-opacity="1" stop-color="rgb(100%, 68.341064%, 31.97937%)" offset="0.625"/><stop stop-opacity="1" stop-color="rgb(100%, 68.106079%, 31.942749%)" offset="0.632812"/><stop stop-opacity="1" stop-color="rgb(100%, 67.869568%, 31.906128%)" offset="0.640625"/><stop stop-opacity="1" stop-color="rgb(100%, 67.634583%, 31.869507%)" offset="0.648438"/><stop stop-opacity="1" stop-color="rgb(100%, 67.398071%, 31.832886%)" offset="0.65625"/><stop stop-opacity="1" stop-color="rgb(100%, 67.16156%, 31.796265%)" offset="0.664062"/><stop stop-opacity="1" stop-color="rgb(100%, 66.926575%, 31.759644%)" offset="0.671875"/><stop stop-opacity="1" stop-color="rgb(100%, 66.690063%, 31.723022%)" offset="0.679688"/><stop stop-opacity="1" stop-color="rgb(100%, 66.453552%, 31.686401%)" offset="0.6875"/><stop stop-opacity="1" stop-color="rgb(100%, 66.218567%, 31.64978%)" offset="0.695312"/><stop stop-opacity="1" stop-color="rgb(100%, 65.982056%, 31.613159%)" offset="0.703125"/><stop stop-opacity="1" stop-color="rgb(100%, 65.74707%, 31.576538%)" offset="0.710938"/><stop stop-opacity="1" stop-color="rgb(100%, 65.510559%, 31.539917%)" offset="0.71875"/><stop stop-opacity="1" stop-color="rgb(100%, 65.274048%, 31.503296%)" offset="0.726563"/><stop stop-opacity="1" stop-color="rgb(100%, 65.039062%, 31.466675%)" offset="0.734375"/><stop stop-opacity="1" stop-color="rgb(100%, 64.802551%, 31.428528%)" offset="0.742188"/><stop stop-opacity="1" stop-color="rgb(100%, 64.56604%, 31.391907%)" offset="0.75"/><stop stop-opacity="1" stop-color="rgb(100%, 64.331055%, 31.355286%)" offset="0.757812"/><stop stop-opacity="1" stop-color="rgb(100%, 64.094543%, 31.318665%)" offset="0.765625"/><stop stop-opacity="1" stop-color="rgb(100%, 63.859558%, 31.282043%)" offset="0.773438"/><stop stop-opacity="1" stop-color="rgb(100%, 63.623047%, 31.245422%)" offset="0.78125"/><stop stop-opacity="1" stop-color="rgb(100%, 63.386536%, 31.208801%)" offset="0.789062"/><stop stop-opacity="1" stop-color="rgb(100%, 63.15155%, 31.17218%)" offset="0.796875"/><stop stop-opacity="1" stop-color="rgb(100%, 62.915039%, 31.135559%)" offset="0.804688"/><stop stop-opacity="1" stop-color="rgb(100%, 62.678528%, 31.098938%)" offset="0.8125"/><stop stop-opacity="1" stop-color="rgb(100%, 62.443542%, 31.062317%)" offset="0.820312"/><stop stop-opacity="1" stop-color="rgb(100%, 62.207031%, 31.025696%)" offset="0.828125"/><stop stop-opacity="1" stop-color="rgb(100%, 61.972046%, 30.989075%)" offset="0.835938"/><stop stop-opacity="1" stop-color="rgb(100%, 61.735535%, 30.952454%)" offset="0.84375"/><stop stop-opacity="1" stop-color="rgb(100%, 61.499023%, 30.915833%)" offset="0.851563"/><stop stop-opacity="1" stop-color="rgb(100%, 61.264038%, 30.879211%)" offset="0.859375"/><stop stop-opacity="1" stop-color="rgb(100%, 61.027527%, 30.841064%)" offset="0.867188"/><stop stop-opacity="1" stop-color="rgb(100%, 60.791016%, 30.804443%)" offset="0.875"/><stop stop-opacity="1" stop-color="rgb(100%, 60.55603%, 30.767822%)" offset="0.882812"/><stop stop-opacity="1" stop-color="rgb(100%, 60.319519%, 30.731201%)" offset="0.890625"/><stop stop-opacity="1" stop-color="rgb(100%, 60.084534%, 30.69458%)" offset="0.898438"/><stop stop-opacity="1" stop-color="rgb(100%, 59.848022%, 30.657959%)" offset="0.90625"/><stop stop-opacity="1" stop-color="rgb(100%, 59.611511%, 30.621338%)" offset="0.914062"/><stop stop-opacity="1" stop-color="rgb(100%, 59.376526%, 30.584717%)" offset="0.921875"/><stop stop-opacity="1" stop-color="rgb(100%, 59.140015%, 30.548096%)" offset="0.929688"/><stop stop-opacity="1" stop-color="rgb(100%, 58.903503%, 30.511475%)" offset="0.9375"/><stop stop-opacity="1" stop-color="rgb(100%, 58.668518%, 30.474854%)" offset="0.945312"/><stop stop-opacity="1" stop-color="rgb(100%, 58.432007%, 30.438232%)" offset="0.953125"/><stop stop-opacity="1" stop-color="rgb(100%, 58.197021%, 30.401611%)" offset="0.960938"/><stop stop-opacity="1" stop-color="rgb(100%, 57.96051%, 30.36499%)" offset="0.96875"/><stop stop-opacity="1" stop-color="rgb(100%, 57.723999%, 30.328369%)" offset="0.976562"/><stop stop-opacity="1" stop-color="rgb(100%, 57.489014%, 30.291748%)" offset="0.984375"/><stop stop-opacity="1" stop-color="rgb(100%, 57.252502%, 30.253601%)" offset="0.992188"/><stop stop-opacity="1" stop-color="rgb(100%, 57.015991%, 30.21698%)" offset="1"/></linearGradient></defs><g clip-path="url(#58702a851e)"><g clip-path="url(#6a0d6136f7)"><path fill="url(#4258d648b0)" d="M 210.65625 313.847656 L 210.65625 674.3125 L 599.6875 674.3125 L 599.6875 313.847656 Z M 210.65625 313.847656 " fill-rule="nonzero"/></g></g><g fill="#00bf63" fill-opacity="1"><g transform="translate(155.088159, 412.676604)"><g><path d="M 5.453125 -74.953125 L 32.796875 -74.953125 C 40.421875 -74.953125 46.59375 -72.984375 51.3125 -69.046875 C 56.039062 -65.109375 58.40625 -59.382812 58.40625 -51.875 C 58.40625 -44.363281 56.015625 -38.472656 51.234375 -34.203125 C 46.453125 -29.929688 40.304688 -27.796875 32.796875 -27.796875 L 22.53125 -27.796875 L 22.53125 0 L 5.453125 0 Z M 22.53125 -41.421875 L 27.34375 -41.421875 C 31.15625 -41.421875 34.285156 -42.191406 36.734375 -43.734375 C 39.191406 -45.285156 40.421875 -47.816406 40.421875 -51.328125 C 40.421875 -54.898438 39.191406 -57.457031 36.734375 -59 C 34.285156 -60.539062 31.15625 -61.3125 27.34375 -61.3125 L 22.53125 -61.3125 Z M 22.53125 -41.421875 "/></g></g></g><g fill="#00bf63" fill-opacity="1"><g transform="translate(216.943483, 412.676604)"><g><path d="M 8.625 -5.765625 C 4.269531 -10.523438 2.09375 -16.351562 2.09375 -23.25 C 2.09375 -30.15625 4.269531 -36 8.625 -40.78125 C 12.988281 -45.570312 18.53125 -47.96875 25.25 -47.96875 C 31.425781 -47.96875 36.515625 -46.03125 40.515625 -42.15625 L 40.515625 -46.609375 L 56.59375 -46.609375 L 56.59375 0 L 40.703125 0 L 40.703125 -5.265625 L 40.515625 -5.265625 C 36.515625 -0.847656 31.425781 1.359375 25.25 1.359375 C 18.53125 1.359375 12.988281 -1.015625 8.625 -5.765625 Z M 22.296875 -31.15625 C 20.210938 -29.101562 19.171875 -26.46875 19.171875 -23.25 C 19.171875 -20.039062 20.164062 -17.421875 22.15625 -15.390625 C 24.15625 -13.367188 26.789062 -12.359375 30.0625 -12.359375 C 33.21875 -12.359375 35.804688 -13.382812 37.828125 -15.4375 C 39.859375 -17.5 40.875 -20.101562 40.875 -23.25 C 40.875 -26.46875 39.828125 -29.101562 37.734375 -31.15625 C 35.648438 -33.21875 33.09375 -34.25 30.0625 -34.25 C 26.976562 -34.25 24.390625 -33.21875 22.296875 -31.15625 Z M 22.296875 -31.15625 "/></g></g></g><g fill="#00bf63" fill-opacity="1"><g transform="translate(280.342923, 412.676604)"><g><path d="M 5.453125 0 L 5.453125 -46.609375 L 21.53125 -46.609375 L 21.53125 -39.875 L 21.71875 -39.875 C 21.832031 -40.125 22.023438 -40.425781 22.296875 -40.78125 C 22.566406 -41.144531 23.15625 -41.78125 24.0625 -42.6875 C 24.976562 -43.601562 25.953125 -44.421875 26.984375 -45.140625 C 28.015625 -45.867188 29.347656 -46.519531 30.984375 -47.09375 C 32.617188 -47.675781 34.28125 -47.96875 35.96875 -47.96875 C 37.726562 -47.96875 39.457031 -47.722656 41.15625 -47.234375 C 42.851562 -46.753906 44.09375 -46.269531 44.875 -45.78125 L 46.15625 -45.0625 L 39.421875 -31.4375 C 37.421875 -33.125 34.632812 -33.96875 31.0625 -33.96875 C 29.125 -33.96875 27.457031 -33.546875 26.0625 -32.703125 C 24.675781 -31.859375 23.691406 -30.828125 23.109375 -29.609375 C 22.535156 -28.398438 22.128906 -27.367188 21.890625 -26.515625 C 21.648438 -25.671875 21.53125 -25.007812 21.53125 -24.53125 L 21.53125 0 Z M 5.453125 0 "/></g></g></g><g fill="#00bf63" fill-opacity="1"><g transform="translate(326.938837, 412.676604)"><g><path d="M 58.6875 -46.609375 L 36.515625 -24.34375 L 60.859375 0 L 40.15625 0 L 21.53125 -18.625 L 21.53125 0 L 5.453125 0 L 5.453125 -78.125 L 21.53125 -78.125 L 21.53125 -30.34375 L 37.796875 -46.609375 Z M 58.6875 -46.609375 "/></g></g></g><g fill="#00bf63" fill-opacity="1"><g transform="translate(386.977569, 412.676604)"><g><path d="M 25.703125 -47.96875 C 28.367188 -47.96875 31.003906 -47.664062 33.609375 -47.0625 C 36.210938 -46.457031 38.148438 -45.847656 39.421875 -45.234375 L 41.328125 -44.328125 L 36.0625 -33.796875 C 32.425781 -35.734375 28.972656 -36.703125 25.703125 -36.703125 C 23.890625 -36.703125 22.601562 -36.503906 21.84375 -36.109375 C 21.09375 -35.710938 20.71875 -34.972656 20.71875 -33.890625 C 20.71875 -33.640625 20.742188 -33.394531 20.796875 -33.15625 C 20.859375 -32.914062 20.976562 -32.6875 21.15625 -32.46875 C 21.34375 -32.257812 21.507812 -32.078125 21.65625 -31.921875 C 21.8125 -31.773438 22.070312 -31.609375 22.4375 -31.421875 C 22.800781 -31.242188 23.085938 -31.109375 23.296875 -31.015625 C 23.515625 -30.929688 23.863281 -30.796875 24.34375 -30.609375 C 24.832031 -30.429688 25.195312 -30.296875 25.4375 -30.203125 C 25.675781 -30.109375 26.082031 -29.972656 26.65625 -29.796875 C 27.238281 -29.617188 27.679688 -29.5 27.984375 -29.4375 C 29.859375 -28.882812 31.488281 -28.273438 32.875 -27.609375 C 34.269531 -26.953125 35.738281 -26.046875 37.28125 -24.890625 C 38.832031 -23.742188 40.03125 -22.289062 40.875 -20.53125 C 41.726562 -18.769531 42.15625 -16.769531 42.15625 -14.53125 C 42.15625 -3.9375 34.796875 1.359375 20.078125 1.359375 C 16.742188 1.359375 13.578125 0.847656 10.578125 -0.171875 C 7.585938 -1.203125 5.425781 -2.234375 4.09375 -3.265625 L 2.09375 -4.90625 L 8.625 -15.890625 C 9.113281 -15.472656 9.75 -14.972656 10.53125 -14.390625 C 11.320312 -13.816406 12.742188 -13.03125 14.796875 -12.03125 C 16.859375 -11.03125 18.648438 -10.53125 20.171875 -10.53125 C 23.492188 -10.53125 25.15625 -11.65625 25.15625 -13.90625 C 25.15625 -14.925781 24.734375 -15.722656 23.890625 -16.296875 C 23.046875 -16.878906 21.609375 -17.53125 19.578125 -18.25 C 17.546875 -18.976562 15.957031 -19.648438 14.8125 -20.265625 C 11.90625 -21.773438 9.601562 -23.484375 7.90625 -25.390625 C 6.207031 -27.296875 5.359375 -29.820312 5.359375 -32.96875 C 5.359375 -37.695312 7.191406 -41.378906 10.859375 -44.015625 C 14.523438 -46.648438 19.472656 -47.96875 25.703125 -47.96875 Z M 25.703125 -47.96875 "/></g></g></g><g fill="#00bf63" fill-opacity="1"><g transform="translate(433.034573, 412.676604)"><g/></g></g><g fill="#00bf63" fill-opacity="1"><g transform="translate(98.999223, 478.776142)"><g><path d="M 5.046875 -69.421875 L 29.875 -69.421875 C 36.550781 -69.421875 41.992188 -67.640625 46.203125 -64.078125 C 50.410156 -60.515625 52.515625 -55.425781 52.515625 -48.8125 C 52.515625 -43.707031 51.238281 -39.425781 48.6875 -35.96875 C 46.132812 -32.519531 42.671875 -30.097656 38.296875 -28.703125 L 62.1875 0 L 42.078125 0 L 20.875 -27.4375 L 20.875 0 L 5.046875 0 Z M 20.875 -38.625 L 22.71875 -38.625 C 24.175781 -38.625 25.410156 -38.648438 26.421875 -38.703125 C 27.429688 -38.765625 28.582031 -38.960938 29.875 -39.296875 C 31.164062 -39.640625 32.203125 -40.117188 32.984375 -40.734375 C 33.773438 -41.347656 34.445312 -42.242188 35 -43.421875 C 35.5625 -44.597656 35.84375 -46.023438 35.84375 -47.703125 C 35.84375 -49.390625 35.5625 -50.820312 35 -52 C 34.445312 -53.1875 33.773438 -54.085938 32.984375 -54.703125 C 32.203125 -55.316406 31.164062 -55.789062 29.875 -56.125 C 28.582031 -56.46875 27.429688 -56.664062 26.421875 -56.71875 C 25.410156 -56.78125 24.175781 -56.8125 22.71875 -56.8125 L 20.875 -56.8125 Z M 20.875 -38.625 "/></g></g></g><g fill="#00bf63" fill-opacity="1"><g transform="translate(160.505965, 478.776142)"><g><path d="M 48.71875 -19.53125 L 17.421875 -19.53125 C 17.421875 -16.5 18.398438 -14.253906 20.359375 -12.796875 C 22.328125 -11.335938 24.460938 -10.609375 26.765625 -10.609375 C 29.171875 -10.609375 31.078125 -10.929688 32.484375 -11.578125 C 33.890625 -12.222656 35.488281 -13.5 37.28125 -15.40625 L 48.046875 -10.015625 C 43.566406 -2.492188 36.109375 1.265625 25.671875 1.265625 C 19.160156 1.265625 13.578125 -0.960938 8.921875 -5.421875 C 4.265625 -9.890625 1.9375 -15.265625 1.9375 -21.546875 C 1.9375 -27.828125 4.265625 -33.210938 8.921875 -37.703125 C 13.578125 -42.191406 19.160156 -44.4375 25.671875 -44.4375 C 32.515625 -44.4375 38.082031 -42.457031 42.375 -38.5 C 46.664062 -34.539062 48.8125 -28.890625 48.8125 -21.546875 C 48.8125 -20.535156 48.78125 -19.863281 48.71875 -19.53125 Z M 17.84375 -27.765625 L 34.25 -27.765625 C 33.914062 -30.015625 33.03125 -31.738281 31.59375 -32.9375 C 30.164062 -34.144531 28.332031 -34.75 26.09375 -34.75 C 23.625 -34.75 21.660156 -34.101562 20.203125 -32.8125 C 18.742188 -31.53125 17.957031 -29.847656 17.84375 -27.765625 Z M 17.84375 -27.765625 "/></g></g></g><g fill="#00bf63" fill-opacity="1"><g transform="translate(212.504848, 478.776142)"><g><path d="M 28.03125 -32.234375 C 25.21875 -32.234375 22.800781 -31.191406 20.78125 -29.109375 C 18.757812 -27.035156 17.75 -24.539062 17.75 -21.625 C 17.75 -18.65625 18.757812 -16.128906 20.78125 -14.046875 C 22.800781 -11.972656 25.21875 -10.9375 28.03125 -10.9375 C 29.375 -10.9375 30.644531 -11.101562 31.84375 -11.4375 C 33.050781 -11.78125 33.9375 -12.117188 34.5 -12.453125 L 35.265625 -12.953125 L 40.3125 -2.609375 C 39.914062 -2.328125 39.367188 -1.972656 38.671875 -1.546875 C 37.972656 -1.128906 36.375 -0.554688 33.875 0.171875 C 31.375 0.898438 28.695312 1.265625 25.84375 1.265625 C 19.5 1.265625 13.925781 -0.960938 9.125 -5.421875 C 4.332031 -9.890625 1.9375 -15.234375 1.9375 -21.453125 C 1.9375 -27.742188 4.332031 -33.144531 9.125 -37.65625 C 13.925781 -42.175781 19.5 -44.4375 25.84375 -44.4375 C 28.695312 -44.4375 31.328125 -44.097656 33.734375 -43.421875 C 36.148438 -42.753906 37.863281 -42.082031 38.875 -41.40625 L 40.3125 -40.390625 L 35.265625 -30.21875 C 33.410156 -31.5625 31 -32.234375 28.03125 -32.234375 Z M 28.03125 -32.234375 "/></g></g></g><g fill="#00bf63" fill-opacity="1"><g transform="translate(255.080012, 478.776142)"><g><path d="M 5.046875 0 L 5.046875 -43.171875 L 19.9375 -43.171875 L 19.9375 -36.9375 L 20.109375 -36.9375 C 20.222656 -37.164062 20.40625 -37.445312 20.65625 -37.78125 C 20.914062 -38.125 21.460938 -38.710938 22.296875 -39.546875 C 23.140625 -40.390625 24.035156 -41.144531 24.984375 -41.8125 C 25.941406 -42.488281 27.175781 -43.09375 28.6875 -43.625 C 30.207031 -44.164062 31.753906 -44.4375 33.328125 -44.4375 C 34.953125 -44.4375 36.550781 -44.210938 38.125 -43.765625 C 39.695312 -43.316406 40.847656 -42.867188 41.578125 -42.421875 L 42.75 -41.734375 L 36.53125 -29.125 C 34.675781 -30.6875 32.09375 -31.46875 28.78125 -31.46875 C 26.988281 -31.46875 25.445312 -31.078125 24.15625 -30.296875 C 22.863281 -29.515625 21.953125 -28.5625 21.421875 -27.4375 C 20.890625 -26.3125 20.507812 -25.351562 20.28125 -24.5625 C 20.050781 -23.78125 19.9375 -23.164062 19.9375 -22.71875 L 19.9375 0 Z M 5.046875 0 "/></g></g></g><g fill="#00bf63" fill-opacity="1"><g transform="translate(298.244151, 478.776142)"><g><path d="M 48.71875 -19.53125 L 17.421875 -19.53125 C 17.421875 -16.5 18.398438 -14.253906 20.359375 -12.796875 C 22.328125 -11.335938 24.460938 -10.609375 26.765625 -10.609375 C 29.171875 -10.609375 31.078125 -10.929688 32.484375 -11.578125 C 33.890625 -12.222656 35.488281 -13.5 37.28125 -15.40625 L 48.046875 -10.015625 C 43.566406 -2.492188 36.109375 1.265625 25.671875 1.265625 C 19.160156 1.265625 13.578125 -0.960938 8.921875 -5.421875 C 4.265625 -9.890625 1.9375 -15.265625 1.9375 -21.546875 C 1.9375 -27.828125 4.265625 -33.210938 8.921875 -37.703125 C 13.578125 -42.191406 19.160156 -44.4375 25.671875 -44.4375 C 32.515625 -44.4375 38.082031 -42.457031 42.375 -38.5 C 46.664062 -34.539062 48.8125 -28.890625 48.8125 -21.546875 C 48.8125 -20.535156 48.78125 -19.863281 48.71875 -19.53125 Z M 17.84375 -27.765625 L 34.25 -27.765625 C 33.914062 -30.015625 33.03125 -31.738281 31.59375 -32.9375 C 30.164062 -34.144531 28.332031 -34.75 26.09375 -34.75 C 23.625 -34.75 21.660156 -34.101562 20.203125 -32.8125 C 18.742188 -31.53125 17.957031 -29.847656 17.84375 -27.765625 Z M 17.84375 -27.765625 "/></g></g></g><g fill="#00bf63" fill-opacity="1"><g transform="translate(350.243024, 478.776142)"><g><path d="M 7.984375 -5.34375 C 3.953125 -9.75 1.9375 -15.148438 1.9375 -21.546875 C 1.9375 -27.941406 3.953125 -33.351562 7.984375 -37.78125 C 12.023438 -42.21875 17.160156 -44.4375 23.390625 -44.4375 C 29.117188 -44.4375 33.832031 -42.640625 37.53125 -39.046875 L 37.53125 -43.171875 L 52.421875 -43.171875 L 52.421875 0 L 37.703125 0 L 37.703125 -4.875 L 37.53125 -4.875 C 33.832031 -0.78125 29.117188 1.265625 23.390625 1.265625 C 17.160156 1.265625 12.023438 -0.9375 7.984375 -5.34375 Z M 20.65625 -28.859375 C 18.71875 -26.953125 17.75 -24.507812 17.75 -21.53125 C 17.75 -18.5625 18.675781 -16.132812 20.53125 -14.25 C 22.382812 -12.375 24.828125 -11.4375 27.859375 -11.4375 C 30.773438 -11.4375 33.171875 -12.390625 35.046875 -14.296875 C 36.929688 -16.210938 37.875 -18.628906 37.875 -21.546875 C 37.875 -24.515625 36.90625 -26.953125 34.96875 -28.859375 C 33.03125 -30.773438 30.660156 -31.734375 27.859375 -31.734375 C 24.992188 -31.734375 22.59375 -30.773438 20.65625 -28.859375 Z M 20.65625 -28.859375 "/></g></g></g><g fill="#00bf63" fill-opacity="1"><g transform="translate(408.973126, 478.776142)"><g><path d="M 7.578125 -43.171875 L 7.578125 -59.25 L 22.46875 -59.25 L 22.46875 -43.171875 L 31.5625 -43.171875 L 31.5625 -31.8125 L 22.46875 -31.8125 L 22.46875 -18.09375 C 22.46875 -14.113281 23.59375 -12.125 25.84375 -12.125 C 26.394531 -12.125 26.976562 -12.234375 27.59375 -12.453125 C 28.21875 -12.679688 28.695312 -12.90625 29.03125 -13.125 L 29.53125 -13.46875 L 33.234375 -1.4375 C 30.035156 0.363281 26.390625 1.265625 22.296875 1.265625 C 19.492188 1.265625 17.082031 0.773438 15.0625 -0.203125 C 13.039062 -1.191406 11.507812 -2.507812 10.46875 -4.15625 C 9.4375 -5.8125 8.695312 -7.550781 8.25 -9.375 C 7.800781 -11.207031 7.578125 -13.160156 7.578125 -15.234375 L 7.578125 -31.8125 L 1.34375 -31.8125 L 1.34375 -43.171875 Z M 7.578125 -43.171875 "/></g></g></g><g fill="#00bf63" fill-opacity="1"><g transform="translate(443.470809, 478.776142)"><g><path d="M 6.484375 -67.234375 C 8.222656 -68.972656 10.296875 -69.84375 12.703125 -69.84375 C 15.117188 -69.84375 17.195312 -68.972656 18.9375 -67.234375 C 20.675781 -65.492188 21.546875 -63.414062 21.546875 -61 C 21.546875 -58.59375 20.675781 -56.519531 18.9375 -54.78125 C 17.195312 -53.039062 15.117188 -52.171875 12.703125 -52.171875 C 10.296875 -52.171875 8.222656 -53.039062 6.484375 -54.78125 C 4.742188 -56.519531 3.875 -58.59375 3.875 -61 C 3.875 -63.414062 4.742188 -65.492188 6.484375 -67.234375 Z M 5.046875 -43.171875 L 5.046875 0 L 19.9375 0 L 19.9375 -43.171875 Z M 5.046875 -43.171875 "/></g></g></g><g fill="#00bf63" fill-opacity="1"><g transform="translate(470.143436, 478.776142)"><g><path d="M 9.125 -5.125 C 4.332031 -9.394531 1.9375 -14.867188 1.9375 -21.546875 C 1.9375 -28.222656 4.429688 -33.707031 9.421875 -38 C 14.421875 -42.289062 20.59375 -44.4375 27.9375 -44.4375 C 35.175781 -44.4375 41.273438 -42.273438 46.234375 -37.953125 C 51.203125 -33.628906 53.6875 -28.15625 53.6875 -21.53125 C 53.6875 -14.914062 51.257812 -9.460938 46.40625 -5.171875 C 41.550781 -0.878906 35.394531 1.265625 27.9375 1.265625 C 20.195312 1.265625 13.925781 -0.863281 9.125 -5.125 Z M 20.65625 -28.859375 C 18.71875 -26.953125 17.75 -24.507812 17.75 -21.53125 C 17.75 -18.5625 18.675781 -16.132812 20.53125 -14.25 C 22.382812 -12.375 24.828125 -11.4375 27.859375 -11.4375 C 30.773438 -11.4375 33.171875 -12.390625 35.046875 -14.296875 C 36.929688 -16.210938 37.875 -18.628906 37.875 -21.546875 C 37.875 -24.515625 36.90625 -26.953125 34.96875 -28.859375 C 33.03125 -30.773438 30.660156 -31.734375 27.859375 -31.734375 C 24.992188 -31.734375 22.59375 -30.773438 20.65625 -28.859375 Z M 20.65625 -28.859375 "/></g></g></g><g fill="#00bf63" fill-opacity="1"><g transform="translate(527.022461, 478.776142)"><g><path d="M 5.046875 0 L 5.046875 -43.171875 L 19.9375 -43.171875 L 19.9375 -38.625 L 20.109375 -38.625 C 23.984375 -42.5 28.109375 -44.4375 32.484375 -44.4375 C 34.617188 -44.4375 36.738281 -44.15625 38.84375 -43.59375 C 40.945312 -43.03125 42.960938 -42.160156 44.890625 -40.984375 C 46.828125 -39.804688 48.398438 -38.132812 49.609375 -35.96875 C 50.816406 -33.8125 51.421875 -31.300781 51.421875 -28.4375 L 51.421875 0 L 36.53125 0 L 36.53125 -24.40625 C 36.53125 -26.644531 35.8125 -28.609375 34.375 -30.296875 C 32.945312 -31.984375 31.082031 -32.828125 28.78125 -32.828125 C 26.539062 -32.828125 24.503906 -31.957031 22.671875 -30.21875 C 20.847656 -28.476562 19.9375 -26.539062 19.9375 -24.40625 L 19.9375 0 Z M 5.046875 0 "/></g></g></g><g fill="#00bf63" fill-opacity="1"><g transform="translate(439.118525, 397.614194)"><g><path d="M 3.359375 -2.25 C 1.660156 -4.101562 0.8125 -6.375 0.8125 -9.0625 C 0.8125 -11.75 1.660156 -14.023438 3.359375 -15.890625 C 5.054688 -17.753906 7.21875 -18.6875 9.84375 -18.6875 C 12.25 -18.6875 14.226562 -17.929688 15.78125 -16.421875 L 15.78125 -18.15625 L 22.046875 -18.15625 L 22.046875 0 L 15.859375 0 L 15.859375 -2.046875 L 15.78125 -2.046875 C 14.226562 -0.328125 12.25 0.53125 9.84375 0.53125 C 7.21875 0.53125 5.054688 -0.394531 3.359375 -2.25 Z M 8.6875 -12.140625 C 7.875 -11.335938 7.46875 -10.3125 7.46875 -9.0625 C 7.46875 -7.8125 7.851562 -6.789062 8.625 -6 C 9.40625 -5.207031 10.4375 -4.8125 11.71875 -4.8125 C 12.9375 -4.8125 13.941406 -5.210938 14.734375 -6.015625 C 15.523438 -6.816406 15.921875 -7.832031 15.921875 -9.0625 C 15.921875 -10.3125 15.515625 -11.335938 14.703125 -12.140625 C 13.890625 -12.941406 12.894531 -13.34375 11.71875 -13.34375 C 10.507812 -13.34375 9.5 -12.941406 8.6875 -12.140625 Z M 8.6875 -12.140625 "/></g></g></g><g fill="#00bf63" fill-opacity="1"><g transform="translate(463.81049, 397.614194)"><g><path d="M 2.125 0 L 2.125 -18.15625 L 8.390625 -18.15625 L 8.390625 -16.25 L 8.453125 -16.25 C 10.085938 -17.875 11.820312 -18.6875 13.65625 -18.6875 C 14.550781 -18.6875 15.441406 -18.566406 16.328125 -18.328125 C 17.210938 -18.097656 18.0625 -17.734375 18.875 -17.234375 C 19.695312 -16.734375 20.359375 -16.03125 20.859375 -15.125 C 21.367188 -14.21875 21.625 -13.164062 21.625 -11.96875 L 21.625 0 L 15.359375 0 L 15.359375 -10.265625 C 15.359375 -11.203125 15.054688 -12.023438 14.453125 -12.734375 C 13.847656 -13.441406 13.066406 -13.796875 12.109375 -13.796875 C 11.160156 -13.796875 10.300781 -13.429688 9.53125 -12.703125 C 8.769531 -11.972656 8.390625 -11.160156 8.390625 -10.265625 L 8.390625 0 Z M 2.125 0 "/></g></g></g><g fill="#00bf63" fill-opacity="1"><g transform="translate(487.724202, 397.614194)"><g><path d="M 3.359375 -2.25 C 1.660156 -4.101562 0.8125 -6.375 0.8125 -9.0625 C 0.8125 -11.75 1.660156 -14.023438 3.359375 -15.890625 C 5.054688 -17.753906 7.21875 -18.6875 9.84375 -18.6875 C 12.25 -18.6875 14.226562 -17.929688 15.78125 -16.421875 L 15.78125 -30.4375 L 22.046875 -30.4375 L 22.046875 0 L 15.859375 0 L 15.859375 -2.046875 L 15.78125 -2.046875 C 14.226562 -0.328125 12.25 0.53125 9.84375 0.53125 C 7.21875 0.53125 5.054688 -0.394531 3.359375 -2.25 Z M 8.6875 -12.140625 C 7.875 -11.335938 7.46875 -10.3125 7.46875 -9.0625 C 7.46875 -7.8125 7.851562 -6.789062 8.625 -6 C 9.40625 -5.207031 10.4375 -4.8125 11.71875 -4.8125 C 12.9375 -4.8125 13.941406 -5.210938 14.734375 -6.015625 C 15.523438 -6.816406 15.921875 -7.832031 15.921875 -9.0625 C 15.921875 -10.3125 15.515625 -11.335938 14.703125 -12.140625 C 13.890625 -12.941406 12.894531 -13.34375 11.71875 -13.34375 C 10.507812 -13.34375 9.5 -12.941406 8.6875 -12.140625 Z M 8.6875 -12.140625 "/></g></g></g></svg>