<svg xmlns="http://www.w3.org/2000/svg" xmlns:xlink="http://www.w3.org/1999/xlink" zoomAndPan="magnify" preserveAspectRatio="xMidYMid meet" version="1.0" viewBox="34.79 0.14 331.25 262.13"><defs><g/><clipPath id="1d21e1cd49"><path d="M 81.195312 0.140625 L 364.09375 0.140625 L 364.09375 262.265625 L 81.195312 262.265625 Z M 81.195312 0.140625 " clip-rule="nonzero"/></clipPath><clipPath id="e7d1b4fc7b"><path d="M 92.105469 41.875 C 69.867188 81.914062 85.320312 120.882812 105.65625 141.566406 L 224.558594 262.265625 L 340.949219 142 C 359.863281 119.75 366.929688 96.148438 363.089844 69.867188 C 357.527344 33.515625 329.210938 5.308594 294.234375 1.28125 C 272.78125 -1.03125 252.058594 5.261719 235.886719 19.480469 C 231.53125 23.308594 227.640625 27.585938 224.25 32.234375 C 220.226562 26.941406 215.511719 22.097656 210.175781 17.808594 C 191.574219 2.851562 167.898438 -2.734375 145.160156 1.53125 C 123.621094 5.933594 104.289062 20.632812 92.105469 41.875 Z M 92.105469 41.875 " clip-rule="nonzero"/></clipPath><linearGradient x1="0.315998" gradientTransform="matrix(1.02447, 0.000000000000000127, -0.000000000000000127, 1.02447, 80.872722, 0)" y1="128.069" x2="276.457982" gradientUnits="userSpaceOnUse" y2="128.069" id="a4586849c2"><stop stop-opacity="1" stop-color="rgb(100%, 87.098694%, 34.899902%)" offset="0"/><stop stop-opacity="1" stop-color="rgb(100%, 86.981201%, 34.881592%)" offset="0.0078125"/><stop stop-opacity="1" stop-color="rgb(100%, 86.74469%, 34.843445%)" offset="0.015625"/><stop stop-opacity="1" stop-color="rgb(100%, 86.508179%, 34.806824%)" offset="0.0234375"/><stop stop-opacity="1" stop-color="rgb(100%, 86.273193%, 34.770203%)" offset="0.03125"/><stop stop-opacity="1" stop-color="rgb(100%, 86.036682%, 34.733582%)" offset="0.0390625"/><stop stop-opacity="1" stop-color="rgb(100%, 85.801697%, 34.69696%)" offset="0.046875"/><stop stop-opacity="1" stop-color="rgb(100%, 85.565186%, 34.660339%)" offset="0.0546875"/><stop stop-opacity="1" stop-color="rgb(100%, 85.328674%, 34.623718%)" offset="0.0625"/><stop stop-opacity="1" stop-color="rgb(100%, 85.093689%, 34.587097%)" offset="0.0703125"/><stop stop-opacity="1" stop-color="rgb(100%, 84.857178%, 34.550476%)" offset="0.078125"/><stop stop-opacity="1" stop-color="rgb(100%, 84.620667%, 34.513855%)" offset="0.0859375"/><stop stop-opacity="1" stop-color="rgb(100%, 84.385681%, 34.477234%)" offset="0.09375"/><stop stop-opacity="1" stop-color="rgb(100%, 84.14917%, 34.440613%)" offset="0.101562"/><stop stop-opacity="1" stop-color="rgb(100%, 83.914185%, 34.403992%)" offset="0.109375"/><stop stop-opacity="1" stop-color="rgb(100%, 83.677673%, 34.367371%)" offset="0.117187"/><stop stop-opacity="1" stop-color="rgb(100%, 83.441162%, 34.33075%)" offset="0.125"/><stop stop-opacity="1" stop-color="rgb(100%, 83.206177%, 34.292603%)" offset="0.132812"/><stop stop-opacity="1" stop-color="rgb(100%, 82.969666%, 34.255981%)" offset="0.140625"/><stop stop-opacity="1" stop-color="rgb(100%, 82.73468%, 34.21936%)" offset="0.148438"/><stop stop-opacity="1" stop-color="rgb(100%, 82.498169%, 34.182739%)" offset="0.15625"/><stop stop-opacity="1" stop-color="rgb(100%, 82.261658%, 34.146118%)" offset="0.164062"/><stop stop-opacity="1" stop-color="rgb(100%, 82.026672%, 34.109497%)" offset="0.171875"/><stop stop-opacity="1" stop-color="rgb(100%, 81.790161%, 34.072876%)" offset="0.179688"/><stop stop-opacity="1" stop-color="rgb(100%, 81.55365%, 34.036255%)" offset="0.1875"/><stop stop-opacity="1" stop-color="rgb(100%, 81.318665%, 33.999634%)" offset="0.195312"/><stop stop-opacity="1" stop-color="rgb(100%, 81.082153%, 33.963013%)" offset="0.203125"/><stop stop-opacity="1" stop-color="rgb(100%, 80.847168%, 33.926392%)" offset="0.210938"/><stop stop-opacity="1" stop-color="rgb(100%, 80.610657%, 33.889771%)" offset="0.21875"/><stop stop-opacity="1" stop-color="rgb(100%, 80.374146%, 33.853149%)" offset="0.226562"/><stop stop-opacity="1" stop-color="rgb(100%, 80.13916%, 33.816528%)" offset="0.234375"/><stop stop-opacity="1" stop-color="rgb(100%, 79.902649%, 33.779907%)" offset="0.242188"/><stop stop-opacity="1" stop-color="rgb(100%, 79.666138%, 33.743286%)" offset="0.25"/><stop stop-opacity="1" stop-color="rgb(100%, 79.431152%, 33.705139%)" offset="0.257812"/><stop stop-opacity="1" stop-color="rgb(100%, 79.194641%, 33.668518%)" offset="0.265625"/><stop stop-opacity="1" stop-color="rgb(100%, 78.959656%, 33.631897%)" offset="0.273438"/><stop stop-opacity="1" stop-color="rgb(100%, 78.723145%, 33.595276%)" offset="0.28125"/><stop stop-opacity="1" stop-color="rgb(100%, 78.486633%, 33.558655%)" offset="0.289062"/><stop stop-opacity="1" stop-color="rgb(100%, 78.251648%, 33.522034%)" offset="0.296875"/><stop stop-opacity="1" stop-color="rgb(100%, 78.015137%, 33.485413%)" offset="0.304688"/><stop stop-opacity="1" stop-color="rgb(100%, 77.778625%, 33.448792%)" offset="0.3125"/><stop stop-opacity="1" stop-color="rgb(100%, 77.54364%, 33.41217%)" offset="0.320312"/><stop stop-opacity="1" stop-color="rgb(100%, 77.307129%, 33.375549%)" offset="0.328125"/><stop stop-opacity="1" stop-color="rgb(100%, 77.072144%, 33.338928%)" offset="0.335937"/><stop stop-opacity="1" stop-color="rgb(100%, 76.835632%, 33.302307%)" offset="0.34375"/><stop stop-opacity="1" stop-color="rgb(100%, 76.599121%, 33.265686%)" offset="0.351562"/><stop stop-opacity="1" stop-color="rgb(100%, 76.364136%, 33.229065%)" offset="0.359375"/><stop stop-opacity="1" stop-color="rgb(100%, 76.127625%, 33.192444%)" offset="0.367187"/><stop stop-opacity="1" stop-color="rgb(100%, 75.891113%, 33.154297%)" offset="0.375"/><stop stop-opacity="1" stop-color="rgb(100%, 75.656128%, 33.117676%)" offset="0.382812"/><stop stop-opacity="1" stop-color="rgb(100%, 75.419617%, 33.081055%)" offset="0.390625"/><stop stop-opacity="1" stop-color="rgb(100%, 75.184631%, 33.044434%)" offset="0.398437"/><stop stop-opacity="1" stop-color="rgb(100%, 74.94812%, 33.007812%)" offset="0.40625"/><stop stop-opacity="1" stop-color="rgb(100%, 74.711609%, 32.971191%)" offset="0.414062"/><stop stop-opacity="1" stop-color="rgb(100%, 74.476624%, 32.93457%)" offset="0.421875"/><stop stop-opacity="1" stop-color="rgb(100%, 74.240112%, 32.897949%)" offset="0.429687"/><stop stop-opacity="1" stop-color="rgb(100%, 74.003601%, 32.861328%)" offset="0.4375"/><stop stop-opacity="1" stop-color="rgb(100%, 73.768616%, 32.824707%)" offset="0.445312"/><stop stop-opacity="1" stop-color="rgb(100%, 73.532104%, 32.788086%)" offset="0.453125"/><stop stop-opacity="1" stop-color="rgb(100%, 73.297119%, 32.751465%)" offset="0.460937"/><stop stop-opacity="1" stop-color="rgb(100%, 73.060608%, 32.714844%)" offset="0.46875"/><stop stop-opacity="1" stop-color="rgb(100%, 72.824097%, 32.678223%)" offset="0.476562"/><stop stop-opacity="1" stop-color="rgb(100%, 72.589111%, 32.641602%)" offset="0.484375"/><stop stop-opacity="1" stop-color="rgb(100%, 72.3526%, 32.60498%)" offset="0.492187"/><stop stop-opacity="1" stop-color="rgb(100%, 72.116089%, 32.566833%)" offset="0.5"/><stop stop-opacity="1" stop-color="rgb(100%, 71.881104%, 32.530212%)" offset="0.507812"/><stop stop-opacity="1" stop-color="rgb(100%, 71.644592%, 32.493591%)" offset="0.515625"/><stop stop-opacity="1" stop-color="rgb(100%, 71.409607%, 32.45697%)" offset="0.523438"/><stop stop-opacity="1" stop-color="rgb(100%, 71.173096%, 32.420349%)" offset="0.53125"/><stop stop-opacity="1" stop-color="rgb(100%, 70.936584%, 32.383728%)" offset="0.539062"/><stop stop-opacity="1" stop-color="rgb(100%, 70.701599%, 32.347107%)" offset="0.546875"/><stop stop-opacity="1" stop-color="rgb(100%, 70.465088%, 32.310486%)" offset="0.554688"/><stop stop-opacity="1" stop-color="rgb(100%, 70.228577%, 32.273865%)" offset="0.5625"/><stop stop-opacity="1" stop-color="rgb(100%, 69.993591%, 32.237244%)" offset="0.570312"/><stop stop-opacity="1" stop-color="rgb(100%, 69.75708%, 32.200623%)" offset="0.578125"/><stop stop-opacity="1" stop-color="rgb(100%, 69.522095%, 32.164001%)" offset="0.585938"/><stop stop-opacity="1" stop-color="rgb(100%, 69.285583%, 32.12738%)" offset="0.59375"/><stop stop-opacity="1" stop-color="rgb(100%, 69.049072%, 32.090759%)" offset="0.601562"/><stop stop-opacity="1" stop-color="rgb(100%, 68.814087%, 32.054138%)" offset="0.609375"/><stop stop-opacity="1" stop-color="rgb(100%, 68.577576%, 32.017517%)" offset="0.617188"/><stop stop-opacity="1" stop-color="rgb(100%, 68.341064%, 31.97937%)" offset="0.625"/><stop stop-opacity="1" stop-color="rgb(100%, 68.106079%, 31.942749%)" offset="0.632812"/><stop stop-opacity="1" stop-color="rgb(100%, 67.869568%, 31.906128%)" offset="0.640625"/><stop stop-opacity="1" stop-color="rgb(100%, 67.634583%, 31.869507%)" offset="0.648438"/><stop stop-opacity="1" stop-color="rgb(100%, 67.398071%, 31.832886%)" offset="0.65625"/><stop stop-opacity="1" stop-color="rgb(100%, 67.16156%, 31.796265%)" offset="0.664062"/><stop stop-opacity="1" stop-color="rgb(100%, 66.926575%, 31.759644%)" offset="0.671875"/><stop stop-opacity="1" stop-color="rgb(100%, 66.690063%, 31.723022%)" offset="0.679688"/><stop stop-opacity="1" stop-color="rgb(100%, 66.453552%, 31.686401%)" offset="0.6875"/><stop stop-opacity="1" stop-color="rgb(100%, 66.218567%, 31.64978%)" offset="0.695312"/><stop stop-opacity="1" stop-color="rgb(100%, 65.982056%, 31.613159%)" offset="0.703125"/><stop stop-opacity="1" stop-color="rgb(100%, 65.74707%, 31.576538%)" offset="0.710938"/><stop stop-opacity="1" stop-color="rgb(100%, 65.510559%, 31.539917%)" offset="0.71875"/><stop stop-opacity="1" stop-color="rgb(100%, 65.274048%, 31.503296%)" offset="0.726562"/><stop stop-opacity="1" stop-color="rgb(100%, 65.039062%, 31.466675%)" offset="0.734375"/><stop stop-opacity="1" stop-color="rgb(100%, 64.802551%, 31.428528%)" offset="0.742188"/><stop stop-opacity="1" stop-color="rgb(100%, 64.56604%, 31.391907%)" offset="0.75"/><stop stop-opacity="1" stop-color="rgb(100%, 64.331055%, 31.355286%)" offset="0.757812"/><stop stop-opacity="1" stop-color="rgb(100%, 64.094543%, 31.318665%)" offset="0.765625"/><stop stop-opacity="1" stop-color="rgb(100%, 63.859558%, 31.282043%)" offset="0.773438"/><stop stop-opacity="1" stop-color="rgb(100%, 63.623047%, 31.245422%)" offset="0.78125"/><stop stop-opacity="1" stop-color="rgb(100%, 63.386536%, 31.208801%)" offset="0.789062"/><stop stop-opacity="1" stop-color="rgb(100%, 63.15155%, 31.17218%)" offset="0.796875"/><stop stop-opacity="1" stop-color="rgb(100%, 62.915039%, 31.135559%)" offset="0.804688"/><stop stop-opacity="1" stop-color="rgb(100%, 62.678528%, 31.098938%)" offset="0.8125"/><stop stop-opacity="1" stop-color="rgb(100%, 62.443542%, 31.062317%)" offset="0.820312"/><stop stop-opacity="1" stop-color="rgb(100%, 62.207031%, 31.025696%)" offset="0.828125"/><stop stop-opacity="1" stop-color="rgb(100%, 61.972046%, 30.989075%)" offset="0.835938"/><stop stop-opacity="1" stop-color="rgb(100%, 61.735535%, 30.952454%)" offset="0.84375"/><stop stop-opacity="1" stop-color="rgb(100%, 61.499023%, 30.915833%)" offset="0.851562"/><stop stop-opacity="1" stop-color="rgb(100%, 61.264038%, 30.879211%)" offset="0.859375"/><stop stop-opacity="1" stop-color="rgb(100%, 61.027527%, 30.841064%)" offset="0.867188"/><stop stop-opacity="1" stop-color="rgb(100%, 60.791016%, 30.804443%)" offset="0.875"/><stop stop-opacity="1" stop-color="rgb(100%, 60.55603%, 30.767822%)" offset="0.882812"/><stop stop-opacity="1" stop-color="rgb(100%, 60.319519%, 30.731201%)" offset="0.890625"/><stop stop-opacity="1" stop-color="rgb(100%, 60.084534%, 30.69458%)" offset="0.898438"/><stop stop-opacity="1" stop-color="rgb(100%, 59.848022%, 30.657959%)" offset="0.90625"/><stop stop-opacity="1" stop-color="rgb(100%, 59.611511%, 30.621338%)" offset="0.914062"/><stop stop-opacity="1" stop-color="rgb(100%, 59.376526%, 30.584717%)" offset="0.921875"/><stop stop-opacity="1" stop-color="rgb(100%, 59.140015%, 30.548096%)" offset="0.929688"/><stop stop-opacity="1" stop-color="rgb(100%, 58.903503%, 30.511475%)" offset="0.9375"/><stop stop-opacity="1" stop-color="rgb(100%, 58.668518%, 30.474854%)" offset="0.945312"/><stop stop-opacity="1" stop-color="rgb(100%, 58.432007%, 30.438232%)" offset="0.953125"/><stop stop-opacity="1" stop-color="rgb(100%, 58.197021%, 30.401611%)" offset="0.960938"/><stop stop-opacity="1" stop-color="rgb(100%, 57.96051%, 30.36499%)" offset="0.96875"/><stop stop-opacity="1" stop-color="rgb(100%, 57.723999%, 30.328369%)" offset="0.976562"/><stop stop-opacity="1" stop-color="rgb(100%, 57.489014%, 30.291748%)" offset="0.984375"/><stop stop-opacity="1" stop-color="rgb(100%, 57.252502%, 30.253601%)" offset="0.992188"/><stop stop-opacity="1" stop-color="rgb(100%, 57.015991%, 30.21698%)" offset="1"/></linearGradient></defs><g clip-path="url(#1d21e1cd49)"><g clip-path="url(#e7d1b4fc7b)"><path fill="url(#a4586849c2)" d="M 81.195312 0.140625 L 81.195312 262.265625 L 364.09375 262.265625 L 364.09375 0.140625 Z M 81.195312 0.140625 " fill-rule="nonzero"/></g></g><g fill="#00bf63" fill-opacity="1"><g transform="translate(30.8246, 88.403858)"><g><path d="M 3.96875 -54.5 L 23.84375 -54.5 C 29.394531 -54.5 33.890625 -53.066406 37.328125 -50.203125 C 40.765625 -47.335938 42.484375 -43.175781 42.484375 -37.71875 C 42.484375 -32.257812 40.742188 -27.976562 37.265625 -24.875 C 33.785156 -21.769531 29.3125 -20.21875 23.84375 -20.21875 L 16.390625 -20.21875 L 16.390625 0 L 3.96875 0 Z M 16.390625 -30.125 L 19.890625 -30.125 C 22.660156 -30.125 24.9375 -30.6875 26.71875 -31.8125 C 28.5 -32.9375 29.390625 -34.773438 29.390625 -37.328125 C 29.390625 -39.921875 28.5 -41.78125 26.71875 -42.90625 C 24.9375 -44.03125 22.660156 -44.59375 19.890625 -44.59375 L 16.390625 -44.59375 Z M 16.390625 -30.125 "/></g></g></g><g fill="#00bf63" fill-opacity="1"><g transform="translate(75.805053, 88.403858)"><g><path d="M 3.96875 0 L 3.96875 -56.8125 L 15.65625 -56.8125 L 15.65625 0 Z M 3.96875 0 "/></g></g></g><g fill="#00bf63" fill-opacity="1"><g transform="translate(96.412914, 88.403858)"><g><path d="M 6.265625 -4.1875 C 3.097656 -7.644531 1.515625 -11.882812 1.515625 -16.90625 C 1.515625 -21.925781 3.097656 -26.175781 6.265625 -29.65625 C 9.441406 -33.132812 13.472656 -34.875 18.359375 -34.875 C 22.859375 -34.875 26.5625 -33.46875 29.46875 -30.65625 L 29.46875 -33.890625 L 41.15625 -33.890625 L 41.15625 0 L 29.59375 0 L 29.59375 -3.828125 L 29.46875 -3.828125 C 26.5625 -0.617188 22.859375 0.984375 18.359375 0.984375 C 13.472656 0.984375 9.441406 -0.738281 6.265625 -4.1875 Z M 16.21875 -22.65625 C 14.695312 -21.15625 13.9375 -19.238281 13.9375 -16.90625 C 13.9375 -14.570312 14.660156 -12.664062 16.109375 -11.1875 C 17.566406 -9.71875 19.484375 -8.984375 21.859375 -8.984375 C 24.148438 -8.984375 26.035156 -9.734375 27.515625 -11.234375 C 28.992188 -12.734375 29.734375 -14.625 29.734375 -16.90625 C 29.734375 -19.238281 28.972656 -21.15625 27.453125 -22.65625 C 25.929688 -24.15625 24.066406 -24.90625 21.859375 -24.90625 C 19.617188 -24.90625 17.738281 -24.15625 16.21875 -22.65625 Z M 16.21875 -22.65625 "/></g></g></g><g fill="#00bf63" fill-opacity="1"><g transform="translate(142.516234, 88.403858)"><g><path d="M 29.65625 -33.890625 L 43.140625 -33.890625 L 16.515625 17.171875 L 3.03125 17.171875 L 14.734375 -5.28125 L -1.328125 -33.890625 L 12.15625 -33.890625 L 21.609375 -16.515625 Z M 29.65625 -33.890625 "/></g></g></g><g fill="#00bf63" fill-opacity="1"><g transform="translate(187.499992, 159.172091)"><g><path d="M 0.40625 -33.8125 L 0.40625 -42.265625 L 30.125 -42.265625 L 30.125 -33.8125 L 20.078125 -33.8125 L 20.078125 0 L 10.453125 0 L 10.453125 -33.8125 Z M 0.40625 -33.8125 "/></g></g></g><g fill="#00bf63" fill-opacity="1"><g transform="translate(218.801225, 159.172091)"><g><path d="M 3.078125 0 L 3.078125 -44.0625 L 12.140625 -44.0625 L 12.140625 -23.515625 L 12.25 -23.515625 C 14.601562 -25.867188 17.113281 -27.046875 19.78125 -27.046875 C 21.070312 -27.046875 22.359375 -26.875 23.640625 -26.53125 C 24.921875 -26.195312 26.148438 -25.671875 27.328125 -24.953125 C 28.503906 -24.234375 29.457031 -23.21875 30.1875 -21.90625 C 30.925781 -20.59375 31.296875 -19.0625 31.296875 -17.3125 L 31.296875 0 L 22.234375 0 L 22.234375 -14.859375 C 22.234375 -16.222656 21.796875 -17.414062 20.921875 -18.4375 C 20.054688 -19.46875 18.921875 -19.984375 17.515625 -19.984375 C 16.148438 -19.984375 14.910156 -19.453125 13.796875 -18.390625 C 12.691406 -17.335938 12.140625 -16.160156 12.140625 -14.859375 L 12.140625 0 Z M 3.078125 0 "/></g></g></g><g fill="#00bf63" fill-opacity="1"><g transform="translate(253.432372, 159.172091)"><g><path d="M 29.671875 -11.890625 L 10.609375 -11.890625 C 10.609375 -10.046875 11.203125 -8.675781 12.390625 -7.78125 C 13.585938 -6.894531 14.890625 -6.453125 16.296875 -6.453125 C 17.765625 -6.453125 18.925781 -6.648438 19.78125 -7.046875 C 20.632812 -7.441406 21.609375 -8.21875 22.703125 -9.375 L 29.25 -6.09375 C 26.519531 -1.519531 21.976562 0.765625 15.625 0.765625 C 11.664062 0.765625 8.265625 -0.585938 5.421875 -3.296875 C 2.585938 -6.015625 1.171875 -9.285156 1.171875 -13.109375 C 1.171875 -16.941406 2.585938 -20.222656 5.421875 -22.953125 C 8.265625 -25.679688 11.664062 -27.046875 15.625 -27.046875 C 19.789062 -27.046875 23.179688 -25.84375 25.796875 -23.4375 C 28.410156 -21.03125 29.71875 -17.585938 29.71875 -13.109375 C 29.71875 -12.492188 29.703125 -12.085938 29.671875 -11.890625 Z M 10.859375 -16.90625 L 20.859375 -16.90625 C 20.648438 -18.269531 20.109375 -19.316406 19.234375 -20.046875 C 18.367188 -20.785156 17.25 -21.15625 15.875 -21.15625 C 14.375 -21.15625 13.179688 -20.757812 12.296875 -19.96875 C 11.410156 -19.1875 10.929688 -18.164062 10.859375 -16.90625 Z M 10.859375 -16.90625 "/></g></g></g><g fill="#00bf63" fill-opacity="1"><g transform="translate(285.092213, 159.172091)"><g><path d="M 3.078125 0 L 3.078125 -26.28125 L 12.140625 -26.28125 L 12.140625 -23.515625 L 12.25 -23.515625 C 14.601562 -25.867188 17.113281 -27.046875 19.78125 -27.046875 C 21.6875 -27.046875 23.476562 -26.648438 25.15625 -25.859375 C 26.832031 -25.078125 28.097656 -23.867188 28.953125 -22.234375 C 31.609375 -25.441406 34.507812 -27.046875 37.65625 -27.046875 C 40.457031 -27.046875 42.863281 -26.257812 44.875 -24.6875 C 46.894531 -23.125 47.90625 -20.664062 47.90625 -17.3125 L 47.90625 0 L 38.828125 0 L 38.828125 -14.859375 C 38.828125 -16.253906 38.441406 -17.421875 37.671875 -18.359375 C 36.910156 -19.304688 35.757812 -19.78125 34.21875 -19.78125 C 32.882812 -19.78125 31.867188 -19.378906 31.171875 -18.578125 C 30.472656 -17.773438 30.085938 -16.804688 30.015625 -15.671875 L 30.015625 0 L 20.953125 0 L 20.953125 -14.859375 C 20.953125 -16.253906 20.566406 -17.421875 19.796875 -18.359375 C 19.035156 -19.304688 17.882812 -19.78125 16.34375 -19.78125 C 14.945312 -19.78125 13.894531 -19.34375 13.1875 -18.46875 C 12.488281 -17.59375 12.140625 -16.5625 12.140625 -15.375 L 12.140625 0 Z M 3.078125 0 "/></g></g></g><g fill="#00bf63" fill-opacity="1"><g transform="translate(336.321669, 159.172091)"><g><path d="M 29.671875 -11.890625 L 10.609375 -11.890625 C 10.609375 -10.046875 11.203125 -8.675781 12.390625 -7.78125 C 13.585938 -6.894531 14.890625 -6.453125 16.296875 -6.453125 C 17.765625 -6.453125 18.925781 -6.648438 19.78125 -7.046875 C 20.632812 -7.441406 21.609375 -8.21875 22.703125 -9.375 L 29.25 -6.09375 C 26.519531 -1.519531 21.976562 0.765625 15.625 0.765625 C 11.664062 0.765625 8.265625 -0.585938 5.421875 -3.296875 C 2.585938 -6.015625 1.171875 -9.285156 1.171875 -13.109375 C 1.171875 -16.941406 2.585938 -20.222656 5.421875 -22.953125 C 8.265625 -25.679688 11.664062 -27.046875 15.625 -27.046875 C 19.789062 -27.046875 23.179688 -25.84375 25.796875 -23.4375 C 28.410156 -21.03125 29.71875 -17.585938 29.71875 -13.109375 C 29.71875 -12.492188 29.703125 -12.085938 29.671875 -11.890625 Z M 10.859375 -16.90625 L 20.859375 -16.90625 C 20.648438 -18.269531 20.109375 -19.316406 19.234375 -20.046875 C 18.367188 -20.785156 17.25 -21.15625 15.875 -21.15625 C 14.375 -21.15625 13.179688 -20.757812 12.296875 -19.96875 C 11.410156 -19.1875 10.929688 -18.164062 10.859375 -16.90625 Z M 10.859375 -16.90625 "/></g></g></g><g fill="#00bf63" fill-opacity="1"><g transform="translate(367.98633, 159.172091)"><g/></g></g><g fill="#00bf63" fill-opacity="1"><g transform="translate(194.570061, 97.502533)"><g><path d="M 0.5625 -46.640625 L 0.5625 -58.296875 L 41.546875 -58.296875 L 41.546875 -46.640625 L 27.703125 -46.640625 L 27.703125 0 L 14.40625 0 L 14.40625 -46.640625 Z M 0.5625 -46.640625 "/></g></g></g><g fill="#00bf63" fill-opacity="1"><g transform="translate(237.735649, 97.502533)"><g><path d="M 4.234375 0 L 4.234375 -60.765625 L 16.75 -60.765625 L 16.75 -32.4375 L 16.890625 -32.4375 C 20.140625 -35.6875 23.597656 -37.3125 27.265625 -37.3125 C 29.054688 -37.3125 30.832031 -37.070312 32.59375 -36.59375 C 34.363281 -36.125 36.0625 -35.394531 37.6875 -34.40625 C 39.3125 -33.414062 40.628906 -32.015625 41.640625 -30.203125 C 42.660156 -28.390625 43.171875 -26.28125 43.171875 -23.875 L 43.171875 0 L 30.671875 0 L 30.671875 -20.484375 C 30.671875 -22.367188 30.066406 -24.019531 28.859375 -25.4375 C 27.660156 -26.851562 26.097656 -27.5625 24.171875 -27.5625 C 22.285156 -27.5625 20.578125 -26.828125 19.046875 -25.359375 C 17.515625 -23.898438 16.75 -22.273438 16.75 -20.484375 L 16.75 0 Z M 4.234375 0 "/></g></g></g><g fill="#00bf63" fill-opacity="1"><g transform="translate(285.493286, 97.502533)"><g><path d="M 6.703125 -4.484375 C 3.316406 -8.179688 1.625 -12.710938 1.625 -18.078125 C 1.625 -23.453125 3.316406 -28 6.703125 -31.71875 C 10.097656 -35.445312 14.410156 -37.3125 19.640625 -37.3125 C 24.441406 -37.3125 28.398438 -35.800781 31.515625 -32.78125 L 31.515625 -36.25 L 44.015625 -36.25 L 44.015625 0 L 31.65625 0 L 31.65625 -4.09375 L 31.515625 -4.09375 C 28.398438 -0.65625 24.441406 1.0625 19.640625 1.0625 C 14.410156 1.0625 10.097656 -0.785156 6.703125 -4.484375 Z M 17.34375 -24.234375 C 15.71875 -22.628906 14.90625 -20.578125 14.90625 -18.078125 C 14.90625 -15.585938 15.679688 -13.550781 17.234375 -11.96875 C 18.796875 -10.394531 20.847656 -9.609375 23.390625 -9.609375 C 25.835938 -9.609375 27.847656 -10.40625 29.421875 -12 C 31.003906 -13.601562 31.796875 -15.632812 31.796875 -18.09375 C 31.796875 -20.582031 30.984375 -22.628906 29.359375 -24.234375 C 27.734375 -25.835938 25.742188 -26.640625 23.390625 -26.640625 C 20.984375 -26.640625 18.96875 -25.835938 17.34375 -24.234375 Z M 17.34375 -24.234375 "/></g></g></g><g fill="#00bf63" fill-opacity="1"><g transform="translate(334.805143, 97.502533)"><g><path d="M 6.359375 -36.25 L 6.359375 -49.734375 L 18.859375 -49.734375 L 18.859375 -36.25 L 26.5 -36.25 L 26.5 -26.703125 L 18.859375 -26.703125 L 18.859375 -15.1875 C 18.859375 -11.84375 19.800781 -10.171875 21.6875 -10.171875 C 22.15625 -10.171875 22.648438 -10.265625 23.171875 -10.453125 C 23.691406 -10.640625 24.09375 -10.828125 24.375 -11.015625 L 24.796875 -11.3125 L 27.90625 -1.203125 C 25.21875 0.304688 22.15625 1.0625 18.71875 1.0625 C 16.363281 1.0625 14.335938 0.648438 12.640625 -0.171875 C 10.953125 -0.992188 9.671875 -2.097656 8.796875 -3.484375 C 7.921875 -4.878906 7.296875 -6.34375 6.921875 -7.875 C 6.546875 -9.40625 6.359375 -11.039062 6.359375 -12.78125 L 6.359375 -26.703125 L 1.125 -26.703125 L 1.125 -36.25 Z M 6.359375 -36.25 "/></g></g></g><g fill="#00bf63" fill-opacity="1"><g transform="translate(110.571962, 225.988793)"><g><path d="M 29.53125 -68.125 C 33.144531 -68.125 36.679688 -67.597656 40.140625 -66.546875 C 43.609375 -65.492188 46.179688 -64.453125 47.859375 -63.421875 L 50.28125 -61.8125 L 44.125 -49.640625 C 43.632812 -49.960938 42.957031 -50.378906 42.09375 -50.890625 C 41.226562 -51.410156 39.601562 -52.101562 37.21875 -52.96875 C 34.84375 -53.832031 32.628906 -54.265625 30.578125 -54.265625 C 28.035156 -54.265625 26.070312 -53.722656 24.6875 -52.640625 C 23.3125 -51.554688 22.625 -50.097656 22.625 -48.265625 C 22.625 -47.335938 22.945312 -46.484375 23.59375 -45.703125 C 24.25 -44.921875 25.359375 -44.082031 26.921875 -43.1875 C 28.492188 -42.300781 29.875 -41.585938 31.0625 -41.046875 C 32.25 -40.503906 34.085938 -39.691406 36.578125 -38.609375 C 40.898438 -36.765625 44.585938 -34.257812 47.640625 -31.09375 C 50.703125 -27.9375 52.234375 -24.359375 52.234375 -20.359375 C 52.234375 -16.515625 51.539062 -13.160156 50.15625 -10.296875 C 48.78125 -7.429688 46.890625 -5.1875 44.484375 -3.5625 C 42.078125 -1.945312 39.414062 -0.75 36.5 0.03125 C 33.582031 0.820312 30.421875 1.21875 27.015625 1.21875 C 24.085938 1.21875 21.21875 0.921875 18.40625 0.328125 C 15.59375 -0.265625 13.238281 -1.007812 11.34375 -1.90625 C 9.457031 -2.800781 7.753906 -3.679688 6.234375 -4.546875 C 4.722656 -5.410156 3.617188 -6.140625 2.921875 -6.734375 L 1.859375 -7.625 L 9.484375 -20.4375 C 10.140625 -19.894531 11.035156 -19.203125 12.171875 -18.359375 C 13.304688 -17.523438 15.316406 -16.40625 18.203125 -15 C 21.097656 -13.59375 23.65625 -12.890625 25.875 -12.890625 C 32.3125 -12.890625 35.53125 -15.082031 35.53125 -19.46875 C 35.53125 -20.382812 35.296875 -21.234375 34.828125 -22.015625 C 34.367188 -22.804688 33.554688 -23.59375 32.390625 -24.375 C 31.234375 -25.15625 30.207031 -25.773438 29.3125 -26.234375 C 28.425781 -26.691406 26.96875 -27.394531 24.9375 -28.34375 C 22.914062 -29.289062 21.414062 -30.007812 20.4375 -30.5 C 16.382812 -32.5 13.25 -35 11.03125 -38 C 8.8125 -41 7.703125 -44.226562 7.703125 -47.6875 C 7.703125 -53.695312 9.914062 -58.601562 14.34375 -62.40625 C 18.78125 -66.21875 23.84375 -68.125 29.53125 -68.125 Z M 29.53125 -68.125 "/></g></g></g><g fill="#00bf63" fill-opacity="1"><g transform="translate(166.285147, 225.988793)"><g><path d="M 8.796875 -4.9375 C 4.171875 -9.050781 1.859375 -14.328125 1.859375 -20.765625 C 1.859375 -27.203125 4.265625 -32.488281 9.078125 -36.625 C 13.890625 -40.757812 19.835938 -42.828125 26.921875 -42.828125 C 33.898438 -42.828125 39.78125 -40.742188 44.5625 -36.578125 C 49.351562 -32.410156 51.75 -27.132812 51.75 -20.75 C 51.75 -14.375 49.410156 -9.117188 44.734375 -4.984375 C 40.054688 -0.847656 34.117188 1.21875 26.921875 1.21875 C 19.460938 1.21875 13.421875 -0.832031 8.796875 -4.9375 Z M 19.90625 -27.8125 C 18.039062 -25.976562 17.109375 -23.628906 17.109375 -20.765625 C 17.109375 -17.898438 18 -15.5625 19.78125 -13.75 C 21.570312 -11.9375 23.925781 -11.03125 26.84375 -11.03125 C 29.65625 -11.03125 31.96875 -11.945312 33.78125 -13.78125 C 35.59375 -15.625 36.5 -17.953125 36.5 -20.765625 C 36.5 -23.628906 35.566406 -25.976562 33.703125 -27.8125 C 31.835938 -29.65625 29.550781 -30.578125 26.84375 -30.578125 C 24.082031 -30.578125 21.769531 -29.65625 19.90625 -27.8125 Z M 19.90625 -27.8125 "/></g></g></g><g fill="#00bf63" fill-opacity="1"><g transform="translate(221.106266, 225.988793)"><g><path d="M 4.859375 0 L 4.859375 -41.609375 L 19.21875 -41.609375 L 19.21875 -37.234375 L 19.390625 -37.234375 C 23.117188 -40.960938 27.09375 -42.828125 31.3125 -42.828125 C 33.363281 -42.828125 35.398438 -42.554688 37.421875 -42.015625 C 39.453125 -41.472656 41.398438 -40.632812 43.265625 -39.5 C 45.128906 -38.363281 46.644531 -36.753906 47.8125 -34.671875 C 48.976562 -32.585938 49.5625 -30.171875 49.5625 -27.421875 L 49.5625 0 L 35.203125 0 L 35.203125 -23.515625 C 35.203125 -25.679688 34.507812 -27.570312 33.125 -29.1875 C 31.75 -30.8125 29.953125 -31.625 27.734375 -31.625 C 25.578125 -31.625 23.617188 -30.785156 21.859375 -29.109375 C 20.097656 -27.441406 19.21875 -25.578125 19.21875 -23.515625 L 19.21875 0 Z M 4.859375 0 "/></g></g></g><g fill="#00bf63" fill-opacity="1"><g transform="translate(275.92739, 225.988793)"><g><path d="M 3 10.21875 L 14.765625 4.46875 C 16.921875 8.03125 20.675781 9.8125 26.03125 9.8125 C 28.519531 9.8125 30.832031 9.015625 32.96875 7.421875 C 35.101562 5.828125 36.171875 3.378906 36.171875 0.078125 L 36.171875 -3 C 33.628906 -0.1875 29.085938 1.21875 22.546875 1.21875 C 16.546875 1.21875 11.597656 -0.898438 7.703125 -5.140625 C 3.804688 -9.390625 1.859375 -14.597656 1.859375 -20.765625 C 1.859375 -26.929688 3.804688 -32.148438 7.703125 -36.421875 C 11.597656 -40.691406 16.546875 -42.828125 22.546875 -42.828125 C 27.898438 -42.828125 32.363281 -41.175781 35.9375 -37.875 L 36.171875 -37.875 L 36.171875 -41.609375 L 50.53125 -41.609375 L 50.53125 1.140625 C 50.53125 7.898438 48.285156 13.117188 43.796875 16.796875 C 39.304688 20.472656 33.382812 22.3125 26.03125 22.3125 C 14.132812 22.3125 6.457031 18.28125 3 10.21875 Z M 19.90625 -27.8125 C 18.039062 -25.976562 17.109375 -23.628906 17.109375 -20.765625 C 17.109375 -17.898438 18 -15.5625 19.78125 -13.75 C 21.570312 -11.9375 23.925781 -11.03125 26.84375 -11.03125 C 29.65625 -11.03125 31.96875 -11.945312 33.78125 -13.78125 C 35.59375 -15.625 36.5 -17.953125 36.5 -20.765625 C 36.5 -23.628906 35.566406 -25.976562 33.703125 -27.8125 C 31.835938 -29.65625 29.550781 -30.578125 26.84375 -30.578125 C 24.082031 -30.578125 21.769531 -29.65625 19.90625 -27.8125 Z M 19.90625 -27.8125 "/></g></g></g></svg>