<svg xmlns="http://www.w3.org/2000/svg" xmlns:xlink="http://www.w3.org/1999/xlink" zoomAndPan="magnify" preserveAspectRatio="xMidYMid meet" version="1.0" viewBox="17.42 0.14 346.68 262.13"><defs><g/><clipPath id="9ab7922ca9"><path d="M 81.195312 0.140625 L 364.09375 0.140625 L 364.09375 262.265625 L 81.195312 262.265625 Z M 81.195312 0.140625 " clip-rule="nonzero"/></clipPath><clipPath id="0142a2de26"><path d="M 92.105469 41.875 C 69.867188 81.914062 85.320312 120.882812 105.65625 141.566406 L 224.558594 262.265625 L 340.949219 142 C 359.863281 119.75 366.929688 96.148438 363.089844 69.867188 C 357.527344 33.515625 329.210938 5.308594 294.234375 1.28125 C 272.78125 -1.03125 252.058594 5.261719 235.886719 19.480469 C 231.53125 23.308594 227.640625 27.585938 224.25 32.234375 C 220.226562 26.941406 215.511719 22.097656 210.175781 17.808594 C 191.574219 2.851562 167.898438 -2.734375 145.160156 1.53125 C 123.621094 5.933594 104.289062 20.632812 92.105469 41.875 Z M 92.105469 41.875 " clip-rule="nonzero"/></clipPath><linearGradient x1="0.315998" gradientTransform="matrix(1.02447, 0.000000000000000127, -0.000000000000000127, 1.02447, 80.872722, 0)" y1="128.069" x2="276.457982" gradientUnits="userSpaceOnUse" y2="128.069" id="5d76cc10a9"><stop stop-opacity="1" stop-color="rgb(100%, 87.098694%, 34.899902%)" offset="0"/><stop stop-opacity="1" stop-color="rgb(100%, 86.981201%, 34.881592%)" offset="0.0078125"/><stop stop-opacity="1" stop-color="rgb(100%, 86.74469%, 34.843445%)" offset="0.015625"/><stop stop-opacity="1" stop-color="rgb(100%, 86.508179%, 34.806824%)" offset="0.0234375"/><stop stop-opacity="1" stop-color="rgb(100%, 86.273193%, 34.770203%)" offset="0.03125"/><stop stop-opacity="1" stop-color="rgb(100%, 86.036682%, 34.733582%)" offset="0.0390625"/><stop stop-opacity="1" stop-color="rgb(100%, 85.801697%, 34.69696%)" offset="0.046875"/><stop stop-opacity="1" stop-color="rgb(100%, 85.565186%, 34.660339%)" offset="0.0546875"/><stop stop-opacity="1" stop-color="rgb(100%, 85.328674%, 34.623718%)" offset="0.0625"/><stop stop-opacity="1" stop-color="rgb(100%, 85.093689%, 34.587097%)" offset="0.0703125"/><stop stop-opacity="1" stop-color="rgb(100%, 84.857178%, 34.550476%)" offset="0.078125"/><stop stop-opacity="1" stop-color="rgb(100%, 84.620667%, 34.513855%)" offset="0.0859375"/><stop stop-opacity="1" stop-color="rgb(100%, 84.385681%, 34.477234%)" offset="0.09375"/><stop stop-opacity="1" stop-color="rgb(100%, 84.14917%, 34.440613%)" offset="0.101562"/><stop stop-opacity="1" stop-color="rgb(100%, 83.914185%, 34.403992%)" offset="0.109375"/><stop stop-opacity="1" stop-color="rgb(100%, 83.677673%, 34.367371%)" offset="0.117187"/><stop stop-opacity="1" stop-color="rgb(100%, 83.441162%, 34.33075%)" offset="0.125"/><stop stop-opacity="1" stop-color="rgb(100%, 83.206177%, 34.292603%)" offset="0.132812"/><stop stop-opacity="1" stop-color="rgb(100%, 82.969666%, 34.255981%)" offset="0.140625"/><stop stop-opacity="1" stop-color="rgb(100%, 82.73468%, 34.21936%)" offset="0.148438"/><stop stop-opacity="1" stop-color="rgb(100%, 82.498169%, 34.182739%)" offset="0.15625"/><stop stop-opacity="1" stop-color="rgb(100%, 82.261658%, 34.146118%)" offset="0.164062"/><stop stop-opacity="1" stop-color="rgb(100%, 82.026672%, 34.109497%)" offset="0.171875"/><stop stop-opacity="1" stop-color="rgb(100%, 81.790161%, 34.072876%)" offset="0.179688"/><stop stop-opacity="1" stop-color="rgb(100%, 81.55365%, 34.036255%)" offset="0.1875"/><stop stop-opacity="1" stop-color="rgb(100%, 81.318665%, 33.999634%)" offset="0.195312"/><stop stop-opacity="1" stop-color="rgb(100%, 81.082153%, 33.963013%)" offset="0.203125"/><stop stop-opacity="1" stop-color="rgb(100%, 80.847168%, 33.926392%)" offset="0.210938"/><stop stop-opacity="1" stop-color="rgb(100%, 80.610657%, 33.889771%)" offset="0.21875"/><stop stop-opacity="1" stop-color="rgb(100%, 80.374146%, 33.853149%)" offset="0.226562"/><stop stop-opacity="1" stop-color="rgb(100%, 80.13916%, 33.816528%)" offset="0.234375"/><stop stop-opacity="1" stop-color="rgb(100%, 79.902649%, 33.779907%)" offset="0.242188"/><stop stop-opacity="1" stop-color="rgb(100%, 79.666138%, 33.743286%)" offset="0.25"/><stop stop-opacity="1" stop-color="rgb(100%, 79.431152%, 33.705139%)" offset="0.257812"/><stop stop-opacity="1" stop-color="rgb(100%, 79.194641%, 33.668518%)" offset="0.265625"/><stop stop-opacity="1" stop-color="rgb(100%, 78.959656%, 33.631897%)" offset="0.273438"/><stop stop-opacity="1" stop-color="rgb(100%, 78.723145%, 33.595276%)" offset="0.28125"/><stop stop-opacity="1" stop-color="rgb(100%, 78.486633%, 33.558655%)" offset="0.289062"/><stop stop-opacity="1" stop-color="rgb(100%, 78.251648%, 33.522034%)" offset="0.296875"/><stop stop-opacity="1" stop-color="rgb(100%, 78.015137%, 33.485413%)" offset="0.304688"/><stop stop-opacity="1" stop-color="rgb(100%, 77.778625%, 33.448792%)" offset="0.3125"/><stop stop-opacity="1" stop-color="rgb(100%, 77.54364%, 33.41217%)" offset="0.320312"/><stop stop-opacity="1" stop-color="rgb(100%, 77.307129%, 33.375549%)" offset="0.328125"/><stop stop-opacity="1" stop-color="rgb(100%, 77.072144%, 33.338928%)" offset="0.335937"/><stop stop-opacity="1" stop-color="rgb(100%, 76.835632%, 33.302307%)" offset="0.34375"/><stop stop-opacity="1" stop-color="rgb(100%, 76.599121%, 33.265686%)" offset="0.351562"/><stop stop-opacity="1" stop-color="rgb(100%, 76.364136%, 33.229065%)" offset="0.359375"/><stop stop-opacity="1" stop-color="rgb(100%, 76.127625%, 33.192444%)" offset="0.367187"/><stop stop-opacity="1" stop-color="rgb(100%, 75.891113%, 33.154297%)" offset="0.375"/><stop stop-opacity="1" stop-color="rgb(100%, 75.656128%, 33.117676%)" offset="0.382812"/><stop stop-opacity="1" stop-color="rgb(100%, 75.419617%, 33.081055%)" offset="0.390625"/><stop stop-opacity="1" stop-color="rgb(100%, 75.184631%, 33.044434%)" offset="0.398437"/><stop stop-opacity="1" stop-color="rgb(100%, 74.94812%, 33.007812%)" offset="0.40625"/><stop stop-opacity="1" stop-color="rgb(100%, 74.711609%, 32.971191%)" offset="0.414062"/><stop stop-opacity="1" stop-color="rgb(100%, 74.476624%, 32.93457%)" offset="0.421875"/><stop stop-opacity="1" stop-color="rgb(100%, 74.240112%, 32.897949%)" offset="0.429687"/><stop stop-opacity="1" stop-color="rgb(100%, 74.003601%, 32.861328%)" offset="0.4375"/><stop stop-opacity="1" stop-color="rgb(100%, 73.768616%, 32.824707%)" offset="0.445312"/><stop stop-opacity="1" stop-color="rgb(100%, 73.532104%, 32.788086%)" offset="0.453125"/><stop stop-opacity="1" stop-color="rgb(100%, 73.297119%, 32.751465%)" offset="0.460937"/><stop stop-opacity="1" stop-color="rgb(100%, 73.060608%, 32.714844%)" offset="0.46875"/><stop stop-opacity="1" stop-color="rgb(100%, 72.824097%, 32.678223%)" offset="0.476562"/><stop stop-opacity="1" stop-color="rgb(100%, 72.589111%, 32.641602%)" offset="0.484375"/><stop stop-opacity="1" stop-color="rgb(100%, 72.3526%, 32.60498%)" offset="0.492187"/><stop stop-opacity="1" stop-color="rgb(100%, 72.116089%, 32.566833%)" offset="0.5"/><stop stop-opacity="1" stop-color="rgb(100%, 71.881104%, 32.530212%)" offset="0.507812"/><stop stop-opacity="1" stop-color="rgb(100%, 71.644592%, 32.493591%)" offset="0.515625"/><stop stop-opacity="1" stop-color="rgb(100%, 71.409607%, 32.45697%)" offset="0.523438"/><stop stop-opacity="1" stop-color="rgb(100%, 71.173096%, 32.420349%)" offset="0.53125"/><stop stop-opacity="1" stop-color="rgb(100%, 70.936584%, 32.383728%)" offset="0.539062"/><stop stop-opacity="1" stop-color="rgb(100%, 70.701599%, 32.347107%)" offset="0.546875"/><stop stop-opacity="1" stop-color="rgb(100%, 70.465088%, 32.310486%)" offset="0.554688"/><stop stop-opacity="1" stop-color="rgb(100%, 70.228577%, 32.273865%)" offset="0.5625"/><stop stop-opacity="1" stop-color="rgb(100%, 69.993591%, 32.237244%)" offset="0.570312"/><stop stop-opacity="1" stop-color="rgb(100%, 69.75708%, 32.200623%)" offset="0.578125"/><stop stop-opacity="1" stop-color="rgb(100%, 69.522095%, 32.164001%)" offset="0.585938"/><stop stop-opacity="1" stop-color="rgb(100%, 69.285583%, 32.12738%)" offset="0.59375"/><stop stop-opacity="1" stop-color="rgb(100%, 69.049072%, 32.090759%)" offset="0.601562"/><stop stop-opacity="1" stop-color="rgb(100%, 68.814087%, 32.054138%)" offset="0.609375"/><stop stop-opacity="1" stop-color="rgb(100%, 68.577576%, 32.017517%)" offset="0.617188"/><stop stop-opacity="1" stop-color="rgb(100%, 68.341064%, 31.97937%)" offset="0.625"/><stop stop-opacity="1" stop-color="rgb(100%, 68.106079%, 31.942749%)" offset="0.632812"/><stop stop-opacity="1" stop-color="rgb(100%, 67.869568%, 31.906128%)" offset="0.640625"/><stop stop-opacity="1" stop-color="rgb(100%, 67.634583%, 31.869507%)" offset="0.648438"/><stop stop-opacity="1" stop-color="rgb(100%, 67.398071%, 31.832886%)" offset="0.65625"/><stop stop-opacity="1" stop-color="rgb(100%, 67.16156%, 31.796265%)" offset="0.664062"/><stop stop-opacity="1" stop-color="rgb(100%, 66.926575%, 31.759644%)" offset="0.671875"/><stop stop-opacity="1" stop-color="rgb(100%, 66.690063%, 31.723022%)" offset="0.679688"/><stop stop-opacity="1" stop-color="rgb(100%, 66.453552%, 31.686401%)" offset="0.6875"/><stop stop-opacity="1" stop-color="rgb(100%, 66.218567%, 31.64978%)" offset="0.695312"/><stop stop-opacity="1" stop-color="rgb(100%, 65.982056%, 31.613159%)" offset="0.703125"/><stop stop-opacity="1" stop-color="rgb(100%, 65.74707%, 31.576538%)" offset="0.710938"/><stop stop-opacity="1" stop-color="rgb(100%, 65.510559%, 31.539917%)" offset="0.71875"/><stop stop-opacity="1" stop-color="rgb(100%, 65.274048%, 31.503296%)" offset="0.726562"/><stop stop-opacity="1" stop-color="rgb(100%, 65.039062%, 31.466675%)" offset="0.734375"/><stop stop-opacity="1" stop-color="rgb(100%, 64.802551%, 31.428528%)" offset="0.742188"/><stop stop-opacity="1" stop-color="rgb(100%, 64.56604%, 31.391907%)" offset="0.75"/><stop stop-opacity="1" stop-color="rgb(100%, 64.331055%, 31.355286%)" offset="0.757812"/><stop stop-opacity="1" stop-color="rgb(100%, 64.094543%, 31.318665%)" offset="0.765625"/><stop stop-opacity="1" stop-color="rgb(100%, 63.859558%, 31.282043%)" offset="0.773438"/><stop stop-opacity="1" stop-color="rgb(100%, 63.623047%, 31.245422%)" offset="0.78125"/><stop stop-opacity="1" stop-color="rgb(100%, 63.386536%, 31.208801%)" offset="0.789062"/><stop stop-opacity="1" stop-color="rgb(100%, 63.15155%, 31.17218%)" offset="0.796875"/><stop stop-opacity="1" stop-color="rgb(100%, 62.915039%, 31.135559%)" offset="0.804688"/><stop stop-opacity="1" stop-color="rgb(100%, 62.678528%, 31.098938%)" offset="0.8125"/><stop stop-opacity="1" stop-color="rgb(100%, 62.443542%, 31.062317%)" offset="0.820312"/><stop stop-opacity="1" stop-color="rgb(100%, 62.207031%, 31.025696%)" offset="0.828125"/><stop stop-opacity="1" stop-color="rgb(100%, 61.972046%, 30.989075%)" offset="0.835938"/><stop stop-opacity="1" stop-color="rgb(100%, 61.735535%, 30.952454%)" offset="0.84375"/><stop stop-opacity="1" stop-color="rgb(100%, 61.499023%, 30.915833%)" offset="0.851562"/><stop stop-opacity="1" stop-color="rgb(100%, 61.264038%, 30.879211%)" offset="0.859375"/><stop stop-opacity="1" stop-color="rgb(100%, 61.027527%, 30.841064%)" offset="0.867188"/><stop stop-opacity="1" stop-color="rgb(100%, 60.791016%, 30.804443%)" offset="0.875"/><stop stop-opacity="1" stop-color="rgb(100%, 60.55603%, 30.767822%)" offset="0.882812"/><stop stop-opacity="1" stop-color="rgb(100%, 60.319519%, 30.731201%)" offset="0.890625"/><stop stop-opacity="1" stop-color="rgb(100%, 60.084534%, 30.69458%)" offset="0.898438"/><stop stop-opacity="1" stop-color="rgb(100%, 59.848022%, 30.657959%)" offset="0.90625"/><stop stop-opacity="1" stop-color="rgb(100%, 59.611511%, 30.621338%)" offset="0.914062"/><stop stop-opacity="1" stop-color="rgb(100%, 59.376526%, 30.584717%)" offset="0.921875"/><stop stop-opacity="1" stop-color="rgb(100%, 59.140015%, 30.548096%)" offset="0.929688"/><stop stop-opacity="1" stop-color="rgb(100%, 58.903503%, 30.511475%)" offset="0.9375"/><stop stop-opacity="1" stop-color="rgb(100%, 58.668518%, 30.474854%)" offset="0.945312"/><stop stop-opacity="1" stop-color="rgb(100%, 58.432007%, 30.438232%)" offset="0.953125"/><stop stop-opacity="1" stop-color="rgb(100%, 58.197021%, 30.401611%)" offset="0.960938"/><stop stop-opacity="1" stop-color="rgb(100%, 57.96051%, 30.36499%)" offset="0.96875"/><stop stop-opacity="1" stop-color="rgb(100%, 57.723999%, 30.328369%)" offset="0.976562"/><stop stop-opacity="1" stop-color="rgb(100%, 57.489014%, 30.291748%)" offset="0.984375"/><stop stop-opacity="1" stop-color="rgb(100%, 57.252502%, 30.253601%)" offset="0.992188"/><stop stop-opacity="1" stop-color="rgb(100%, 57.015991%, 30.21698%)" offset="1"/></linearGradient></defs><g clip-path="url(#9ab7922ca9)"><g clip-path="url(#0142a2de26)"><path fill="url(#5d76cc10a9)" d="M 81.195312 0.140625 L 81.195312 262.265625 L 364.09375 262.265625 L 364.09375 0.140625 Z M 81.195312 0.140625 " fill-rule="nonzero"/></g></g><g fill="#00bf63" fill-opacity="1"><g transform="translate(14.122963, 119.549832)"><g><path d="M 45.84375 -54.5 L 45.84375 -19.359375 C 45.84375 -12.660156 44.035156 -7.59375 40.421875 -4.15625 C 36.816406 -0.726562 31.535156 0.984375 24.578125 0.984375 C 17.617188 0.984375 12.332031 -0.726562 8.71875 -4.15625 C 5.101562 -7.59375 3.296875 -12.660156 3.296875 -19.359375 L 3.296875 -54.5 L 15.71875 -54.5 L 15.71875 -22.984375 C 15.71875 -18.585938 16.410156 -15.53125 17.796875 -13.8125 C 19.191406 -12.09375 21.453125 -11.234375 24.578125 -11.234375 C 27.703125 -11.234375 29.957031 -12.09375 31.34375 -13.8125 C 32.726562 -15.53125 33.421875 -18.585938 33.421875 -22.984375 L 33.421875 -54.5 Z M 45.84375 -54.5 "/></g></g></g><g fill="#00bf63" fill-opacity="1"><g transform="translate(64.255349, 119.549832)"><g><path d="M 38.84375 -29.6875 C 42.007812 -26.238281 43.59375 -22.003906 43.59375 -16.984375 C 43.59375 -11.960938 42.007812 -7.710938 38.84375 -4.234375 C 35.675781 -0.753906 31.644531 0.984375 26.75 0.984375 C 22.257812 0.984375 18.5625 -0.421875 15.65625 -3.234375 L 15.65625 17.171875 L 3.96875 17.171875 L 3.96875 -33.890625 L 15.53125 -33.890625 L 15.53125 -30.0625 L 15.65625 -30.0625 C 18.5625 -33.269531 22.257812 -34.875 26.75 -34.875 C 31.644531 -34.875 35.675781 -33.144531 38.84375 -29.6875 Z M 28.90625 -11.234375 C 30.425781 -12.734375 31.1875 -14.648438 31.1875 -16.984375 C 31.1875 -19.316406 30.457031 -21.21875 29 -22.6875 C 27.550781 -24.164062 25.632812 -24.90625 23.25 -24.90625 C 20.957031 -24.90625 19.070312 -24.15625 17.59375 -22.65625 C 16.125 -21.15625 15.390625 -19.265625 15.390625 -16.984375 C 15.390625 -14.648438 16.148438 -12.734375 17.671875 -11.234375 C 19.191406 -9.734375 21.050781 -8.984375 23.25 -8.984375 C 25.5 -8.984375 27.382812 -9.734375 28.90625 -11.234375 Z M 28.90625 -11.234375 "/></g></g></g><g fill="#00bf63" fill-opacity="1"><g transform="translate(110.358665, 119.549832)"><g><path d="M 3.96875 0 L 3.96875 -56.8125 L 15.65625 -56.8125 L 15.65625 0 Z M 3.96875 0 "/></g></g></g><g fill="#00bf63" fill-opacity="1"><g transform="translate(130.966523, 119.549832)"><g><path d="M 7.15625 -4.03125 C 3.394531 -7.375 1.515625 -11.664062 1.515625 -16.90625 C 1.515625 -22.144531 3.472656 -26.445312 7.390625 -29.8125 C 11.316406 -33.1875 16.164062 -34.875 21.9375 -34.875 C 27.613281 -34.875 32.398438 -33.175781 36.296875 -29.78125 C 40.191406 -26.394531 42.140625 -22.101562 42.140625 -16.90625 C 42.140625 -11.707031 40.234375 -7.425781 36.421875 -4.0625 C 32.617188 -0.695312 27.789062 0.984375 21.9375 0.984375 C 15.851562 0.984375 10.925781 -0.6875 7.15625 -4.03125 Z M 16.21875 -22.65625 C 14.695312 -21.15625 13.9375 -19.238281 13.9375 -16.90625 C 13.9375 -14.570312 14.660156 -12.664062 16.109375 -11.1875 C 17.566406 -9.71875 19.484375 -8.984375 21.859375 -8.984375 C 24.148438 -8.984375 26.035156 -9.734375 27.515625 -11.234375 C 28.992188 -12.734375 29.734375 -14.625 29.734375 -16.90625 C 29.734375 -19.238281 28.972656 -21.15625 27.453125 -22.65625 C 25.929688 -24.15625 24.066406 -24.90625 21.859375 -24.90625 C 19.617188 -24.90625 17.738281 -24.15625 16.21875 -22.65625 Z M 16.21875 -22.65625 "/></g></g></g><g fill="#00bf63" fill-opacity="1"><g transform="translate(175.616726, 119.549832)"><g><path d="M 6.265625 -4.1875 C 3.097656 -7.644531 1.515625 -11.882812 1.515625 -16.90625 C 1.515625 -21.925781 3.097656 -26.175781 6.265625 -29.65625 C 9.441406 -33.132812 13.472656 -34.875 18.359375 -34.875 C 22.859375 -34.875 26.5625 -33.46875 29.46875 -30.65625 L 29.46875 -33.890625 L 41.15625 -33.890625 L 41.15625 0 L 29.59375 0 L 29.59375 -3.828125 L 29.46875 -3.828125 C 26.5625 -0.617188 22.859375 0.984375 18.359375 0.984375 C 13.472656 0.984375 9.441406 -0.738281 6.265625 -4.1875 Z M 16.21875 -22.65625 C 14.695312 -21.15625 13.9375 -19.238281 13.9375 -16.90625 C 13.9375 -14.570312 14.660156 -12.664062 16.109375 -11.1875 C 17.566406 -9.71875 19.484375 -8.984375 21.859375 -8.984375 C 24.148438 -8.984375 26.035156 -9.734375 27.515625 -11.234375 C 28.992188 -12.734375 29.734375 -14.625 29.734375 -16.90625 C 29.734375 -19.238281 28.972656 -21.15625 27.453125 -22.65625 C 25.929688 -24.15625 24.066406 -24.90625 21.859375 -24.90625 C 19.617188 -24.90625 17.738281 -24.15625 16.21875 -22.65625 Z M 16.21875 -22.65625 "/></g></g></g><g fill="#00bf63" fill-opacity="1"><g transform="translate(221.720038, 119.549832)"><g><path d="M 6.265625 -4.1875 C 3.097656 -7.644531 1.515625 -11.882812 1.515625 -16.90625 C 1.515625 -21.925781 3.097656 -26.175781 6.265625 -29.65625 C 9.441406 -33.132812 13.472656 -34.875 18.359375 -34.875 C 22.859375 -34.875 26.5625 -33.46875 29.46875 -30.65625 L 29.46875 -56.8125 L 41.15625 -56.8125 L 41.15625 0 L 29.59375 0 L 29.59375 -3.828125 L 29.46875 -3.828125 C 26.5625 -0.617188 22.859375 0.984375 18.359375 0.984375 C 13.472656 0.984375 9.441406 -0.738281 6.265625 -4.1875 Z M 16.21875 -22.65625 C 14.695312 -21.15625 13.9375 -19.238281 13.9375 -16.90625 C 13.9375 -14.570312 14.660156 -12.664062 16.109375 -11.1875 C 17.566406 -9.71875 19.484375 -8.984375 21.859375 -8.984375 C 24.148438 -8.984375 26.035156 -9.734375 27.515625 -11.234375 C 28.992188 -12.734375 29.734375 -14.625 29.734375 -16.90625 C 29.734375 -19.238281 28.972656 -21.15625 27.453125 -22.65625 C 25.929688 -24.15625 24.066406 -24.90625 21.859375 -24.90625 C 19.617188 -24.90625 17.738281 -24.15625 16.21875 -22.65625 Z M 16.21875 -22.65625 "/></g></g></g><g fill="#00bf63" fill-opacity="1"><g transform="translate(270.475828, 176.445339)"><g><path d="M 53.515625 -92.171875 L 90.71875 0 L 68.140625 0 L 61.328125 -18.4375 L 26.25 -18.4375 L 19.4375 0 L -3.125 0 L 34.078125 -92.171875 Z M 54.1875 -36.859375 L 43.90625 -63.671875 L 43.6875 -63.671875 L 33.40625 -36.859375 Z M 54.1875 -36.859375 "/></g></g></g><g fill="#00bf63" fill-opacity="1"><g transform="translate(85.904464, 245.308909)"><g><path d="M 21.171875 14.03125 L 17.515625 8.515625 C 17.679688 8.296875 17.898438 8.023438 18.171875 7.703125 C 18.441406 7.378906 19.007812 6.769531 19.875 5.875 C 20.738281 4.988281 21.578125 4.207031 22.390625 3.53125 C 23.203125 2.851562 24.144531 2.242188 25.21875 1.703125 C 26.300781 1.160156 27.300781 0.890625 28.21875 0.890625 L 28.21875 0.5625 C 20.332031 -0.945312 13.96875 -4.835938 9.125 -11.109375 C 4.28125 -17.378906 1.859375 -24.84375 1.859375 -33.5 C 1.859375 -43.226562 5.101562 -51.429688 11.59375 -58.109375 C 18.082031 -64.785156 25.953125 -68.125 35.203125 -68.125 C 44.503906 -68.125 52.367188 -64.785156 58.796875 -58.109375 C 65.234375 -51.429688 68.453125 -43.226562 68.453125 -33.5 C 68.453125 -25.550781 66.316406 -18.546875 62.046875 -12.484375 C 57.773438 -6.429688 52.148438 -2.351562 45.171875 -0.25 L 45.171875 0.078125 C 45.503906 0.078125 46.9375 0.332031 49.46875 0.84375 C 52.007812 1.363281 54.039062 1.625 55.5625 1.625 C 57.613281 1.625 59.476562 1.257812 61.15625 0.53125 C 62.832031 -0.195312 63.992188 -0.914062 64.640625 -1.625 L 65.625 -2.75 L 70.40625 7.546875 C 70.289062 7.816406 70.113281 8.15625 69.875 8.5625 C 69.632812 8.96875 69.082031 9.679688 68.21875 10.703125 C 67.351562 11.734375 66.390625 12.65625 65.328125 13.46875 C 64.273438 14.28125 62.867188 15.007812 61.109375 15.65625 C 59.359375 16.300781 57.484375 16.625 55.484375 16.625 C 52.179688 16.625 48.148438 15.566406 43.390625 13.453125 C 38.628906 11.347656 34.519531 10.296875 31.0625 10.296875 C 29.164062 10.296875 27.394531 10.609375 25.75 11.234375 C 24.101562 11.859375 22.925781 12.492188 22.21875 13.140625 Z M 18.328125 -33.5 C 18.328125 -30.90625 18.625 -28.484375 19.21875 -26.234375 C 19.8125 -23.992188 20.742188 -21.953125 22.015625 -20.109375 C 23.285156 -18.273438 25.039062 -16.828125 27.28125 -15.765625 C 29.53125 -14.710938 32.171875 -14.1875 35.203125 -14.1875 C 40.878906 -14.1875 45.09375 -16.023438 47.84375 -19.703125 C 50.601562 -23.378906 51.984375 -27.976562 51.984375 -33.5 C 51.984375 -38.957031 50.578125 -43.535156 47.765625 -47.234375 C 44.960938 -50.941406 40.773438 -52.796875 35.203125 -52.796875 C 29.679688 -52.796875 25.488281 -50.929688 22.625 -47.203125 C 19.757812 -43.472656 18.328125 -38.90625 18.328125 -33.5 Z M 18.328125 -33.5 "/></g></g></g><g fill="#00bf63" fill-opacity="1"><g transform="translate(157.431377, 245.308909)"><g><path d="M 18.40625 -41.609375 L 18.40625 -21.8125 C 18.40625 -17.707031 19.023438 -14.789062 20.265625 -13.0625 C 21.515625 -11.332031 23.625 -10.46875 26.59375 -10.46875 C 29.570312 -10.46875 31.679688 -11.332031 32.921875 -13.0625 C 34.171875 -14.789062 34.796875 -17.707031 34.796875 -21.8125 L 34.796875 -41.609375 L 49.15625 -41.609375 L 49.15625 -18.328125 C 49.15625 -11.410156 47.351562 -6.421875 43.75 -3.359375 C 40.15625 -0.304688 34.4375 1.21875 26.59375 1.21875 C 18.757812 1.21875 13.046875 -0.304688 9.453125 -3.359375 C 5.859375 -6.421875 4.0625 -11.410156 4.0625 -18.328125 L 4.0625 -41.609375 Z M 18.40625 -41.609375 "/></g></g></g><g fill="#00bf63" fill-opacity="1"><g transform="translate(211.847022, 245.308909)"><g><path d="M 8.796875 -4.9375 C 4.171875 -9.050781 1.859375 -14.328125 1.859375 -20.765625 C 1.859375 -27.203125 4.265625 -32.488281 9.078125 -36.625 C 13.890625 -40.757812 19.835938 -42.828125 26.921875 -42.828125 C 33.898438 -42.828125 39.78125 -40.742188 44.5625 -36.578125 C 49.351562 -32.410156 51.75 -27.132812 51.75 -20.75 C 51.75 -14.375 49.410156 -9.117188 44.734375 -4.984375 C 40.054688 -0.847656 34.117188 1.21875 26.921875 1.21875 C 19.460938 1.21875 13.421875 -0.832031 8.796875 -4.9375 Z M 19.90625 -27.8125 C 18.039062 -25.976562 17.109375 -23.628906 17.109375 -20.765625 C 17.109375 -17.898438 18 -15.5625 19.78125 -13.75 C 21.570312 -11.9375 23.925781 -11.03125 26.84375 -11.03125 C 29.65625 -11.03125 31.96875 -11.945312 33.78125 -13.78125 C 35.59375 -15.625 36.5 -17.953125 36.5 -20.765625 C 36.5 -23.628906 35.566406 -25.976562 33.703125 -27.8125 C 31.835938 -29.65625 29.550781 -30.578125 26.84375 -30.578125 C 24.082031 -30.578125 21.769531 -29.65625 19.90625 -27.8125 Z M 19.90625 -27.8125 "/></g></g></g><g fill="#00bf63" fill-opacity="1"><g transform="translate(266.668146, 245.308909)"><g><path d="M 7.296875 -41.609375 L 7.296875 -57.09375 L 21.65625 -57.09375 L 21.65625 -41.609375 L 30.421875 -41.609375 L 30.421875 -30.65625 L 21.65625 -30.65625 L 21.65625 -17.4375 C 21.65625 -13.601562 22.738281 -11.6875 24.90625 -11.6875 C 25.445312 -11.6875 26.015625 -11.789062 26.609375 -12 C 27.203125 -12.21875 27.660156 -12.4375 27.984375 -12.65625 L 28.46875 -12.984375 L 32.03125 -1.375 C 28.957031 0.351562 25.445312 1.21875 21.5 1.21875 C 18.789062 1.21875 16.460938 0.742188 14.515625 -0.203125 C 12.566406 -1.148438 11.09375 -2.421875 10.09375 -4.015625 C 9.09375 -5.609375 8.375 -7.285156 7.9375 -9.046875 C 7.507812 -10.804688 7.296875 -12.6875 7.296875 -14.6875 L 7.296875 -30.65625 L 1.296875 -30.65625 L 1.296875 -41.609375 Z M 7.296875 -41.609375 "/></g></g></g><g fill="#00bf63" fill-opacity="1"><g transform="translate(299.917709, 245.308909)"><g><path d="M 46.96875 -18.8125 L 16.796875 -18.8125 C 16.796875 -15.894531 17.738281 -13.734375 19.625 -12.328125 C 21.519531 -10.921875 23.578125 -10.21875 25.796875 -10.21875 C 28.117188 -10.21875 29.953125 -10.523438 31.296875 -11.140625 C 32.648438 -11.765625 34.195312 -13 35.9375 -14.84375 L 46.3125 -9.65625 C 41.988281 -2.40625 34.796875 1.21875 24.734375 1.21875 C 18.460938 1.21875 13.082031 -0.929688 8.59375 -5.234375 C 4.101562 -9.535156 1.859375 -14.710938 1.859375 -20.765625 C 1.859375 -26.816406 4.101562 -32.003906 8.59375 -36.328125 C 13.082031 -40.660156 18.460938 -42.828125 24.734375 -42.828125 C 31.335938 -42.828125 36.707031 -40.921875 40.84375 -37.109375 C 44.976562 -33.296875 47.046875 -27.847656 47.046875 -20.765625 C 47.046875 -19.785156 47.019531 -19.132812 46.96875 -18.8125 Z M 17.1875 -26.765625 L 33.015625 -26.765625 C 32.691406 -28.929688 31.835938 -30.59375 30.453125 -31.75 C 29.078125 -32.914062 27.304688 -33.5 25.140625 -33.5 C 22.765625 -33.5 20.875 -32.875 19.46875 -31.625 C 18.0625 -30.382812 17.300781 -28.765625 17.1875 -26.765625 Z M 17.1875 -26.765625 "/></g></g></g></svg>